<?xml version="1.0" standalone="no"?><!DOCTYPE svg PUBLIC "-//W3C//DTD SVG 1.1//EN" "http://www.w3.org/Graphics/SVG/1.1/DTD/svg11.dtd"><svg height="1024" node-id="1" sillyvg="true" template-height="1024" template-width="1024" version="1.1" viewBox="0 0 1024 1024" width="1024" xmlns="http://www.w3.org/2000/svg" xmlns:xlink="http://www.w3.org/1999/xlink"><defs node-id="54"></defs><path d="M 0.00 0.00 L 1024.00 0.00 L 1024.00 1024.00 L 0.00 1024.00 Z" fill="#ffffff" fill-rule="nonzero" node-id="56" stroke="none" target-height="1024" target-width="1024" target-x="0" target-y="0"></path><path d="M 456.40 466.50 L 460.30 464.80 L 464.20 463.40 L 468.10 462.60 L 472.10 462.10 L 480.20 462.40 L 488.10 464.10 L 493.20 466.00 L 498.10 468.40 L 502.70 471.30 L 507.00 474.70 L 510.90 478.50 L 514.40 482.70 L 518.70 489.60 L 521.70 497.10 L 522.60 501.10 L 523.10 505.10 L 523.20 509.20 L 522.90 513.40 L 516.90 501.00 L 513.50 494.90 L 509.60 489.10 L 503.60 482.00 L 500.40 478.90 L 496.80 476.10 L 493.00 473.80 L 489.00 471.80 L 484.70 470.40 L 480.10 469.50 L 471.30 468.80 L 464.30 469.20 L 461.00 469.90 L 456.70 471.40 L 452.60 473.40 L 448.70 475.80 L 441.40 481.60 L 433.20 490.20 L 428.80 495.40 L 435.90 483.80 L 441.60 476.70 L 444.80 473.60 L 448.30 470.80 L 452.10 468.50 L 456.40 466.50 Z" fill="#fcfaf7" fill-rule="nonzero" node-id="58" stroke="none" target-height="51.30002" target-width="94.400024" target-x="428.8" target-y="462.1"></path><path d="M 436.50 298.30 L 485.00 293.40 L 509.30 291.50 L 533.70 290.10 L 558.00 289.00 L 582.40 288.50 L 606.80 288.50 L 631.10 289.10 L 655.50 290.40 L 673.70 291.70 L 691.90 293.50 L 710.00 295.70 L 728.20 298.30 L 754.40 303.20 L 767.40 306.20 L 780.30 309.70 L 788.70 312.50 L 797.00 315.70 L 805.10 319.30 L 810.30 322.50 L 812.50 324.50 L 815.40 327.90 L 817.90 331.70 L 822.10 339.80 L 825.90 348.00 L 832.20 382.90 L 834.90 400.40 L 837.20 418.00 L 838.40 429.70 L 839.10 441.50 L 839.40 453.20 L 839.30 465.00 L 838.60 476.80 L 835.90 498.80 L 834.10 509.00 L 831.90 519.10 L 829.30 529.20 L 826.20 539.10 L 822.60 548.80 L 818.40 558.30 L 813.80 567.50 L 808.60 576.40 L 804.30 582.80 L 799.70 589.00 L 794.70 595.00 L 783.10 607.20 L 776.50 613.20 L 769.70 618.80 L 762.60 624.10 L 752.80 630.70 L 742.70 636.80 L 732.30 642.40 L 721.60 647.50 L 710.60 652.20 L 699.50 656.40 L 677.00 663.90 L 653.40 670.40 L 641.00 673.10 L 628.60 675.50 L 616.10 677.40 L 599.40 679.50 L 582.60 681.00 L 565.70 682.10 L 548.80 682.70 L 515.00 683.10 L 493.70 680.50 L 472.30 677.40 L 444.00 672.20 L 430.00 669.00 L 416.10 665.40 L 402.40 661.20 L 388.90 656.60 L 369.00 648.40 L 349.60 638.80 L 341.30 633.90 L 333.20 628.60 L 325.50 622.90 L 318.10 616.80 L 311.00 610.20 L 304.30 603.40 L 297.90 596.20 L 291.80 588.60 L 286.10 580.80 L 280.80 572.80 L 275.90 564.50 L 266.80 546.80 L 262.70 537.50 L 259.00 528.00 L 255.70 518.30 L 252.90 508.50 L 250.50 498.60 L 248.50 488.70 L 246.90 478.60 L 245.70 468.40 L 244.50 448.00 L 244.90 427.60 L 245.70 417.40 L 248.30 397.20 L 249.50 391.20 L 251.20 385.30 L 253.20 379.60 L 255.60 373.90 L 258.30 368.40 L 261.50 363.20 L 264.90 358.30 L 268.80 353.60 L 273.00 349.20 L 277.50 345.10 L 282.40 341.40 L 287.60 338.10 L 296.20 333.30 L 304.80 329.00 L 313.70 325.00 L 322.70 321.60 L 334.90 317.50 L 347.20 313.90 L 359.80 310.90 L 372.50 308.20 L 398.10 303.80 L 436.50 298.30 Z M 315.80 340.90 L 315.20 350.90 L 314.90 361.10 L 315.20 371.50 L 315.90 381.80 L 317.20 392.10 L 318.90 402.30 L 320.70 409.90 L 325.10 424.60 L 327.90 431.80 L 331.00 438.70 L 334.50 445.50 L 338.50 452.00 L 342.80 458.30 L 347.50 464.20 L 352.70 469.90 L 358.30 475.20 L 364.40 480.20 L 372.00 471.80 L 374.10 468.70 L 375.90 465.50 L 377.10 461.90 L 380.10 450.50 L 382.70 439.00 L 384.80 427.50 L 386.50 415.90 L 388.20 400.30 L 389.30 384.70 L 389.90 369.00 L 390.00 353.40 L 389.30 322.10 L 380.90 322.40 L 372.50 323.20 L 364.20 324.70 L 355.90 326.70 L 339.60 331.80 L 315.80 340.90 Z M 257.80 422.00 L 257.80 433.00 L 258.20 443.90 L 259.10 455.00 L 260.30 465.90 L 262.10 476.80 L 264.40 487.60 L 267.10 498.20 L 270.50 508.70 L 274.40 518.90 L 277.70 526.50 L 285.50 541.00 L 289.90 548.10 L 286.60 550.60 L 289.70 557.20 L 297.00 569.70 L 301.10 575.70 L 306.90 583.40 L 313.30 590.70 L 320.00 597.60 L 327.20 604.20 L 334.60 610.30 L 342.40 616.10 L 353.50 622.40 L 364.80 628.30 L 376.30 633.70 L 387.90 638.60 L 399.80 643.10 L 411.80 647.10 L 424.00 650.70 L 436.30 654.00 L 452.80 657.60 L 469.50 660.70 L 486.30 663.10 L 503.20 665.00 L 520.00 666.40 L 536.90 667.30 L 552.70 667.00 L 568.50 666.40 L 584.40 665.30 L 600.20 663.80 L 615.90 661.60 L 631.50 658.90 L 643.10 656.40 L 654.60 653.50 L 666.00 650.10 L 677.20 646.30 L 686.90 643.90 L 696.40 641.10 L 705.80 637.80 L 715.00 634.00 L 724.00 629.80 L 732.80 625.20 L 741.50 620.20 L 749.90 614.90 L 764.40 604.70 L 770.40 599.90 L 776.10 594.70 L 781.60 589.20 L 786.70 583.50 L 791.50 577.40 L 795.90 571.20 L 800.10 564.60 L 803.80 557.90 L 807.20 551.00 L 810.30 543.80 L 812.90 536.50 L 791.10 526.20 L 783.60 523.30 L 778.50 521.80 L 773.30 520.60 L 767.90 519.90 L 761.80 519.60 L 749.60 520.30 L 740.50 521.60 L 731.40 523.60 L 713.80 528.80 L 705.50 530.20 L 697.30 531.20 L 689.10 531.70 L 676.80 531.70 L 664.50 531.20 L 652.20 530.20 L 615.20 526.80 L 602.80 526.30 L 581.70 526.50 L 564.40 527.90 L 551.40 529.60 L 525.40 533.70 L 503.80 536.50 L 486.50 537.60 L 477.80 537.60 L 469.10 537.00 L 460.30 536.00 L 459.10 533.80 L 457.50 532.00 L 449.20 526.60 L 436.60 519.80 L 423.10 514.30 L 416.20 512.10 L 402.00 508.90 L 394.80 507.80 L 387.60 507.20 L 380.40 507.00 L 373.20 507.20 L 366.00 507.90 L 358.90 509.10 L 351.90 510.70 L 345.00 512.90 L 332.80 518.10 L 327.60 520.90 L 317.70 527.40 L 314.20 525.90 L 311.00 524.00 L 308.20 521.90 L 303.10 516.90 L 297.80 509.60 L 286.60 490.60 L 280.10 481.30 L 277.10 476.40 L 274.40 471.30 L 270.80 463.40 L 267.70 455.30 L 265.00 447.10 L 257.80 422.00 Z M 658.10 473.70 L 655.10 476.90 L 652.50 480.40 L 650.30 484.10 L 647.60 490.00 L 645.40 496.20 L 642.00 508.90 L 645.50 504.00 L 655.80 488.00 L 659.50 482.90 L 663.50 478.40 L 666.50 475.70 L 669.70 473.40 L 673.10 471.50 L 678.80 469.50 L 682.00 469.10 L 689.60 468.60 L 693.30 468.80 L 696.80 469.50 L 703.30 472.20 L 706.40 474.10 L 710.70 477.40 L 714.80 481.10 L 730.10 497.10 L 725.00 484.20 L 722.90 480.20 L 720.50 476.30 L 717.40 472.80 L 714.20 469.70 L 710.70 467.10 L 706.90 465.00 L 702.90 463.30 L 698.70 462.00 L 694.30 461.30 L 689.90 460.90 L 685.50 461.00 L 681.10 461.60 L 676.80 462.50 L 672.60 463.90 L 668.60 465.80 L 664.80 468.00 L 661.30 470.60 L 658.10 473.70 Z M 456.40 466.50 L 452.10 468.50 L 448.30 470.80 L 444.80 473.60 L 441.60 476.70 L 435.90 483.80 L 428.80 495.40 L 433.20 490.20 L 441.40 481.60 L 448.70 475.80 L 452.60 473.40 L 456.70 471.40 L 461.00 469.90 L 464.30 469.20 L 471.30 468.80 L 480.10 469.50 L 484.70 470.40 L 489.00 471.80 L 493.00 473.80 L 496.80 476.10 L 500.40 478.90 L 503.60 482.00 L 509.60 489.10 L 513.50 494.90 L 517.00 501.00 L 522.90 513.40 L 523.20 509.20 L 523.10 505.10 L 522.60 501.10 L 521.70 497.10 L 518.70 489.60 L 514.40 482.70 L 510.90 478.50 L 507.00 474.70 L 502.70 471.30 L 498.10 468.40 L 493.20 466.00 L 488.10 464.10 L 480.20 462.40 L 472.10 462.10 L 468.10 462.60 L 464.20 463.40 L 460.30 464.80 L 456.40 466.50 Z" fill="#311b30" fill-rule="nonzero" node-id="60" stroke="none" target-height="394.59998" target-width="594.9" target-x="244.5" target-y="288.5"></path><path d="M 658.10 473.70 L 661.30 470.60 L 664.80 468.00 L 668.60 465.80 L 672.60 463.90 L 676.80 462.50 L 681.10 461.60 L 685.50 461.00 L 689.90 460.90 L 694.30 461.30 L 698.70 462.00 L 702.90 463.30 L 706.90 465.00 L 710.70 467.10 L 714.20 469.70 L 717.40 472.80 L 720.50 476.30 L 722.90 480.20 L 725.00 484.20 L 730.10 497.10 L 714.80 481.10 L 710.70 477.40 L 706.40 474.10 L 703.30 472.20 L 696.80 469.50 L 693.30 468.80 L 689.60 468.60 L 682.00 469.10 L 678.80 469.50 L 673.10 471.50 L 669.70 473.40 L 666.50 475.70 L 663.50 478.40 L 659.50 482.90 L 655.80 488.00 L 645.50 504.00 L 642.00 508.90 L 645.40 496.20 L 647.60 490.00 L 650.30 484.10 L 652.50 480.40 L 655.10 476.90 L 658.10 473.70 Z" fill="#f2ddc9" fill-rule="nonzero" node-id="62" stroke="none" target-height="48" target-width="88.099976" target-x="642" target-y="460.9"></path><path d="M 462.90 89.00 L 478.20 86.30 L 493.60 84.10 L 509.10 82.50 L 524.80 81.50 L 540.40 81.00 L 556.10 81.20 L 571.70 81.90 L 587.30 83.30 L 599.70 84.80 L 612.10 86.70 L 624.30 89.00 L 636.50 91.80 L 648.50 95.00 L 660.50 98.50 L 672.20 102.60 L 683.80 107.00 L 695.20 111.90 L 706.50 117.20 L 717.50 123.00 L 728.30 129.20 L 738.90 135.80 L 749.20 143.00 L 765.60 155.60 L 771.50 161.10 L 794.20 184.00 L 800.20 189.30 L 806.60 194.20 L 811.30 195.40 L 820.80 197.00 L 842.70 198.40 L 854.80 199.70 L 859.50 200.80 L 870.10 203.80 L 875.80 206.00 L 881.40 208.60 L 886.70 211.70 L 891.80 215.20 L 896.50 219.10 L 900.80 223.40 L 904.70 228.00 L 908.00 233.00 L 910.20 237.00 L 913.50 245.50 L 914.70 250.10 L 915.90 258.30 L 916.70 266.50 L 917.00 274.60 L 916.90 286.90 L 914.50 336.20 L 914.80 353.10 L 915.50 357.60 L 916.60 362.00 L 918.70 368.50 L 929.40 393.80 L 931.40 400.30 L 932.40 404.70 L 932.90 409.30 L 935.20 459.20 L 935.30 470.60 L 934.90 481.80 L 934.20 489.30 L 933.10 496.60 L 931.60 503.90 L 929.60 511.10 L 927.00 518.10 L 923.80 525.10 L 921.80 528.30 L 919.50 531.10 L 917.00 533.60 L 912.80 536.90 L 908.30 539.80 L 889.00 549.90 L 884.50 552.80 L 880.30 556.20 L 878.00 566.70 L 876.10 577.30 L 871.80 609.40 L 870.00 620.00 L 893.60 640.40 L 901.10 647.60 L 910.50 657.70 L 918.90 668.60 L 922.60 674.50 L 930.40 688.70 L 934.40 697.00 L 938.00 705.40 L 941.10 714.00 L 943.70 722.70 L 946.00 731.60 L 947.90 740.50 L 949.40 749.50 L 950.90 761.70 L 951.70 773.90 L 952.00 786.10 L 951.70 798.40 L 950.90 810.60 L 949.60 822.60 L 947.20 836.00 L 945.50 842.60 L 943.40 849.10 L 941.00 855.50 L 938.20 861.70 L 935.00 867.70 L 931.40 873.50 L 927.40 878.90 L 923.00 884.00 L 918.10 888.70 L 912.70 893.10 L 906.60 897.30 L 900.30 901.10 L 893.80 904.40 L 887.10 907.30 L 873.30 911.90 L 866.30 913.70 L 859.00 915.10 L 849.30 916.60 L 839.60 917.50 L 829.70 918.00 L 810.10 917.90 L 794.20 916.80 L 788.00 915.80 L 781.90 914.50 L 773.00 911.90 L 764.20 908.70 L 743.30 899.70 L 735.80 897.70 L 730.00 897.10 L 718.30 897.20 L 687.60 900.50 L 661.30 902.50 L 641.50 903.40 L 578.20 904.80 L 574.80 905.30 L 571.50 906.20 L 566.70 908.10 L 562.10 910.60 L 544.60 922.80 L 540.20 925.70 L 535.60 928.10 L 527.90 931.50 L 520.20 934.40 L 512.30 936.70 L 504.30 938.60 L 496.10 940.10 L 479.60 941.80 L 463.00 942.20 L 450.60 941.80 L 438.30 940.80 L 416.20 937.60 L 408.90 936.10 L 394.60 932.10 L 387.70 929.50 L 380.90 926.50 L 363.30 916.70 L 357.60 913.80 L 351.80 911.50 L 347.70 910.40 L 343.60 909.90 L 311.30 909.50 L 283.40 908.90 L 264.80 908.10 L 227.60 905.50 L 209.10 903.50 L 190.70 901.10 L 172.30 898.10 L 160.60 895.60 L 148.80 892.40 L 141.00 890.00 L 133.40 887.10 L 126.00 883.90 L 118.80 880.30 L 112.00 876.10 L 105.50 871.40 L 101.00 867.60 L 96.70 863.40 L 92.70 858.80 L 85.70 849.00 L 82.80 844.00 L 80.40 838.90 L 78.30 833.60 L 76.10 826.40 L 74.40 819.00 L 73.20 811.50 L 72.50 803.90 L 72.00 788.50 L 73.00 765.70 L 74.00 754.80 L 75.40 744.00 L 77.20 733.30 L 80.50 717.30 L 92.00 669.60 L 93.30 663.00 L 94.20 656.40 L 94.60 649.80 L 94.60 640.00 L 94.10 630.10 L 93.00 620.30 L 89.00 590.70 L 87.10 571.00 L 86.50 548.90 L 86.60 537.80 L 87.20 526.70 L 88.30 515.60 L 89.80 504.70 L 91.80 493.80 L 94.50 483.10 L 97.70 472.50 L 100.50 464.80 L 103.80 457.20 L 107.40 449.70 L 115.90 435.00 L 120.60 427.80 L 125.50 420.80 L 148.70 390.10 L 156.00 379.60 L 157.50 377.00 L 158.70 374.30 L 159.40 371.60 L 159.90 367.40 L 159.80 363.00 L 159.20 358.70 L 151.90 323.80 L 150.10 312.60 L 148.90 301.40 L 148.40 293.90 L 148.40 286.40 L 148.80 278.90 L 149.70 271.50 L 151.10 264.20 L 153.10 256.80 L 155.20 251.50 L 157.60 246.50 L 160.40 241.70 L 163.60 237.20 L 170.90 228.90 L 179.50 221.70 L 185.70 217.60 L 192.20 213.90 L 199.00 210.80 L 206.10 208.20 L 213.20 206.10 L 226.60 203.60 L 246.30 201.90 L 252.80 201.20 L 259.10 200.10 L 263.20 199.10 L 271.00 195.90 L 274.60 193.80 L 278.00 191.00 L 290.70 178.60 L 300.40 169.90 L 310.50 161.50 L 320.90 153.50 L 331.50 145.90 L 342.40 138.60 L 353.60 131.80 L 365.00 125.30 L 376.60 119.20 L 388.40 113.60 L 400.40 108.40 L 412.60 103.60 L 425.00 99.30 L 437.50 95.40 L 450.10 91.90 L 462.90 89.00 Z M 501.40 90.40 L 486.60 92.30 L 471.80 94.80 L 457.20 97.90 L 442.60 101.60 L 428.20 105.90 L 414.00 110.80 L 400.10 116.30 L 386.40 122.40 L 375.60 127.60 L 365.00 133.30 L 354.60 139.20 L 344.50 145.60 L 334.50 152.30 L 324.80 159.40 L 315.40 166.80 L 306.30 174.50 L 297.50 182.60 L 279.20 200.30 L 272.20 205.60 L 268.20 207.60 L 261.60 208.30 L 234.90 209.20 L 228.20 209.70 L 221.70 210.70 L 209.10 214.00 L 203.10 216.20 L 197.20 218.80 L 191.50 221.80 L 186.00 225.20 L 180.90 228.90 L 176.10 233.10 L 171.70 237.70 L 167.80 242.70 L 165.20 246.60 L 163.00 250.80 L 161.10 255.30 L 157.60 267.00 L 156.20 273.90 L 155.50 280.90 L 155.30 287.90 L 155.50 294.90 L 156.10 301.90 L 157.50 312.40 L 165.30 354.40 L 166.90 367.70 L 166.40 373.10 L 165.20 376.90 L 163.50 380.70 L 161.40 384.20 L 154.20 394.30 L 137.90 415.40 L 130.10 426.30 L 122.80 437.40 L 114.00 452.90 L 110.20 460.90 L 106.70 469.00 L 103.70 477.40 L 99.00 495.00 L 97.20 503.90 L 95.90 512.90 L 94.90 521.90 L 94.20 534.00 L 94.00 546.20 L 94.30 558.30 L 95.50 576.60 L 97.40 594.80 L 101.90 631.00 L 102.70 639.10 L 102.90 647.10 L 102.50 654.90 L 101.70 662.80 L 98.90 678.30 L 96.10 689.90 L 89.80 713.00 L 85.10 732.40 L 82.60 748.00 L 80.00 772.90 L 79.30 789.70 L 79.50 798.10 L 80.20 806.50 L 81.40 814.70 L 83.10 822.80 L 84.90 828.70 L 87.10 834.50 L 89.80 840.20 L 92.90 845.80 L 96.10 850.60 L 99.60 855.00 L 103.40 859.10 L 107.50 862.90 L 113.40 867.50 L 119.60 871.60 L 126.10 875.30 L 133.00 878.50 L 140.00 881.40 L 147.20 883.90 L 158.10 887.10 L 168.90 889.70 L 197.00 894.60 L 225.30 898.00 L 244.20 899.60 L 263.20 900.80 L 282.20 901.50 L 310.70 902.00 L 344.10 902.00 L 348.70 902.50 L 353.10 903.60 L 361.60 906.80 L 371.80 912.30 L 383.90 919.50 L 390.20 922.70 L 398.80 926.00 L 413.20 929.30 L 423.20 931.10 L 443.50 933.60 L 453.70 934.30 L 464.00 934.50 L 474.20 934.30 L 484.30 933.60 L 494.40 932.30 L 504.40 930.50 L 514.30 928.10 L 524.10 925.10 L 531.60 921.80 L 540.20 916.00 L 554.90 904.50 L 561.90 900.40 L 565.60 898.80 L 569.40 897.80 L 573.50 897.20 L 621.90 896.70 L 643.90 896.10 L 665.80 895.10 L 695.10 892.80 L 716.40 890.40 L 723.20 889.80 L 732.30 889.90 L 741.20 891.10 L 745.60 892.50 L 767.20 901.90 L 776.00 905.20 L 785.10 907.80 L 791.20 909.20 L 797.40 910.20 L 813.60 911.40 L 823.50 911.50 L 833.60 911.20 L 843.70 910.40 L 853.60 909.00 L 863.50 907.10 L 870.70 905.20 L 877.80 902.90 L 884.70 900.20 L 891.40 897.00 L 897.90 893.50 L 904.10 889.40 L 910.10 884.80 L 915.80 879.70 L 919.80 875.60 L 923.40 871.30 L 926.70 866.70 L 929.50 861.90 L 932.80 855.20 L 935.60 848.20 L 937.80 840.90 L 941.10 826.20 L 943.50 808.20 L 944.20 797.50 L 944.50 786.70 L 944.30 775.90 L 943.60 765.10 L 942.40 754.40 L 940.70 743.70 L 938.50 733.20 L 935.70 722.80 L 932.40 712.60 L 928.50 702.60 L 924.10 692.90 L 920.10 685.20 L 915.70 677.90 L 911.00 670.70 L 905.90 663.80 L 900.30 657.00 L 896.10 652.30 L 891.60 648.00 L 872.00 632.20 L 867.40 628.00 L 863.00 623.50 L 863.10 614.90 L 864.60 597.60 L 869.10 564.10 L 869.70 560.20 L 871.50 554.00 L 874.00 549.50 L 878.80 546.20 L 884.10 543.20 L 900.30 534.80 L 905.40 531.60 L 908.70 529.30 L 914.30 524.00 L 916.70 520.90 L 918.80 517.40 L 920.50 513.50 L 922.90 505.80 L 924.70 498.00 L 925.90 490.20 L 926.90 474.30 L 926.80 466.20 L 925.10 430.10 L 924.70 413.20 L 924.20 408.50 L 923.30 403.80 L 921.40 396.90 L 911.30 369.70 L 909.40 362.90 L 908.50 358.20 L 907.90 353.40 L 908.10 336.80 L 909.50 301.30 L 909.70 289.50 L 909.50 277.70 L 908.40 262.00 L 907.30 254.20 L 906.20 249.10 L 904.60 244.20 L 902.60 239.50 L 900.10 235.00 L 897.20 230.80 L 894.00 226.90 L 890.40 223.30 L 886.50 219.90 L 882.30 216.90 L 877.90 214.30 L 873.30 212.10 L 863.10 208.30 L 857.80 206.80 L 852.40 205.80 L 844.10 204.90 L 819.10 203.80 L 810.80 203.20 L 802.60 201.90 L 796.30 197.00 L 790.30 191.60 L 767.90 168.70 L 762.00 163.30 L 747.20 151.40 L 738.50 144.90 L 729.50 138.80 L 720.40 133.10 L 711.00 127.80 L 699.00 121.60 L 686.80 115.90 L 674.40 110.80 L 661.70 106.30 L 648.80 102.20 L 635.80 98.70 L 622.60 95.70 L 609.30 93.20 L 595.90 91.10 L 582.40 89.60 L 568.90 88.60 L 555.40 88.00 L 541.80 87.90 L 528.30 88.30 L 514.80 89.10 L 501.40 90.40 Z" fill="#e5d7d8" fill-rule="nonzero" node-id="64" stroke="none" target-height="861.2" target-width="880" target-x="72" target-y="81"></path><path d="M 501.40 90.40 L 514.80 89.10 L 528.30 88.30 L 541.80 87.90 L 555.40 88.00 L 568.90 88.60 L 582.40 89.60 L 595.90 91.10 L 609.30 93.20 L 622.60 95.70 L 635.80 98.70 L 648.80 102.20 L 661.70 106.30 L 674.40 110.80 L 686.80 115.90 L 699.00 121.60 L 711.00 127.80 L 720.40 133.10 L 729.50 138.80 L 738.50 144.90 L 747.20 151.40 L 762.00 163.30 L 767.90 168.70 L 790.30 191.60 L 796.30 197.00 L 802.60 201.90 L 810.80 203.20 L 819.10 203.80 L 844.10 204.90 L 852.40 205.80 L 857.80 206.80 L 863.10 208.30 L 873.30 212.10 L 877.90 214.30 L 882.30 216.90 L 886.50 219.90 L 890.40 223.30 L 894.00 226.90 L 897.20 230.80 L 900.10 235.00 L 902.60 239.50 L 904.60 244.20 L 906.20 249.10 L 907.30 254.20 L 908.40 262.00 L 909.50 277.70 L 909.70 289.50 L 909.50 301.30 L 908.10 336.80 L 907.90 353.40 L 908.50 358.20 L 909.40 362.90 L 911.30 369.70 L 921.40 396.90 L 923.30 403.80 L 924.20 408.50 L 924.70 413.20 L 925.10 430.10 L 926.90 466.20 L 926.90 474.30 L 925.90 490.20 L 924.70 498.00 L 922.90 505.80 L 920.50 513.50 L 918.80 517.40 L 916.70 520.90 L 914.30 524.00 L 908.70 529.30 L 905.40 531.60 L 900.30 534.80 L 884.10 543.20 L 878.80 546.20 L 874.00 549.50 L 871.50 554.00 L 869.70 560.20 L 869.10 564.10 L 864.60 597.60 L 863.10 614.90 L 863.00 623.50 L 867.40 628.00 L 872.00 632.20 L 891.60 648.00 L 896.10 652.30 L 900.30 657.00 L 905.90 663.80 L 911.00 670.70 L 915.70 677.90 L 920.10 685.20 L 924.10 692.90 L 928.50 702.60 L 932.40 712.60 L 935.70 722.80 L 938.50 733.20 L 940.70 743.70 L 942.40 754.40 L 943.60 765.10 L 944.30 775.90 L 944.50 786.70 L 944.20 797.50 L 943.50 808.20 L 941.10 826.20 L 937.80 840.90 L 935.60 848.20 L 932.80 855.20 L 929.50 861.90 L 926.70 866.70 L 923.40 871.30 L 919.80 875.60 L 915.80 879.70 L 910.10 884.80 L 904.10 889.40 L 897.90 893.50 L 891.40 897.00 L 884.70 900.20 L 877.80 902.90 L 870.70 905.20 L 863.50 907.10 L 853.60 909.00 L 843.70 910.40 L 833.60 911.20 L 823.50 911.50 L 813.60 911.40 L 797.40 910.20 L 791.20 909.20 L 785.10 907.80 L 776.00 905.20 L 767.20 901.90 L 745.60 892.50 L 741.20 891.10 L 732.30 889.90 L 723.20 889.80 L 716.40 890.40 L 695.10 892.80 L 665.80 895.10 L 643.90 896.10 L 621.90 896.70 L 573.50 897.20 L 569.40 897.80 L 565.60 898.80 L 561.90 900.40 L 554.90 904.50 L 540.20 916.00 L 531.60 921.80 L 524.10 925.10 L 514.30 928.10 L 504.40 930.50 L 494.40 932.30 L 484.30 933.60 L 474.20 934.30 L 464.00 934.50 L 453.70 934.30 L 443.50 933.60 L 423.20 931.10 L 413.20 929.30 L 398.80 926.00 L 390.20 922.70 L 383.90 919.50 L 371.80 912.30 L 361.60 906.80 L 353.10 903.60 L 348.70 902.50 L 344.10 902.00 L 310.70 902.00 L 282.20 901.50 L 263.20 900.80 L 244.20 899.60 L 225.30 898.00 L 197.00 894.60 L 168.90 889.70 L 158.10 887.10 L 147.20 883.90 L 140.00 881.40 L 133.00 878.50 L 126.10 875.30 L 119.60 871.60 L 113.40 867.50 L 107.50 862.90 L 103.40 859.10 L 99.60 855.00 L 96.10 850.60 L 92.90 845.80 L 89.80 840.20 L 87.10 834.50 L 84.90 828.70 L 83.10 822.80 L 81.40 814.70 L 80.20 806.50 L 79.50 798.10 L 79.30 789.70 L 80.00 772.90 L 82.60 748.00 L 85.10 732.40 L 89.80 713.00 L 96.10 689.90 L 98.90 678.30 L 101.70 662.80 L 102.50 654.90 L 102.90 647.10 L 102.70 639.10 L 101.90 631.00 L 97.40 594.80 L 95.50 576.60 L 94.30 558.30 L 94.00 546.20 L 94.20 534.00 L 94.90 521.90 L 95.90 512.90 L 97.20 503.90 L 99.00 495.00 L 103.70 477.40 L 106.70 469.00 L 110.20 460.90 L 114.00 452.90 L 122.80 437.40 L 130.10 426.30 L 137.90 415.40 L 154.20 394.30 L 161.40 384.20 L 163.50 380.70 L 165.20 376.90 L 166.40 373.10 L 166.90 367.70 L 165.30 354.40 L 157.50 312.40 L 156.10 301.90 L 155.50 294.90 L 155.30 287.90 L 155.50 280.90 L 156.20 273.90 L 157.60 267.00 L 161.10 255.30 L 163.00 250.80 L 165.20 246.60 L 167.80 242.70 L 171.70 237.70 L 176.10 233.10 L 180.90 228.90 L 186.10 225.20 L 191.50 221.80 L 197.20 218.80 L 203.10 216.20 L 209.10 214.00 L 221.70 210.70 L 228.20 209.70 L 234.90 209.20 L 261.60 208.30 L 268.20 207.60 L 272.20 205.60 L 279.20 200.30 L 297.50 182.60 L 306.30 174.50 L 315.40 166.80 L 324.80 159.40 L 334.50 152.30 L 344.50 145.60 L 354.60 139.20 L 365.00 133.30 L 375.60 127.60 L 386.40 122.40 L 400.10 116.30 L 414.00 110.80 L 428.20 105.90 L 442.60 101.60 L 457.20 97.90 L 471.80 94.80 L 486.60 92.30 L 501.40 90.40 Z M 490.80 109.90 L 478.90 111.80 L 467.10 114.10 L 455.40 116.90 L 443.80 120.00 L 432.20 123.60 L 420.80 127.60 L 409.60 131.90 L 398.50 136.70 L 387.60 141.80 L 376.80 147.40 L 366.30 153.30 L 356.00 159.60 L 346.00 166.20 L 336.20 173.20 L 326.60 180.50 L 317.30 188.30 L 308.40 196.30 L 299.70 204.70 L 291.40 213.40 L 278.90 227.20 L 275.50 229.80 L 272.20 230.60 L 262.70 228.40 L 256.20 227.40 L 249.50 226.80 L 242.80 226.60 L 236.20 227.00 L 229.60 227.90 L 223.20 229.30 L 216.90 231.30 L 210.80 233.90 L 202.30 238.80 L 198.30 241.80 L 190.60 248.90 L 187.20 252.90 L 184.30 257.20 L 181.90 261.80 L 179.90 266.60 L 178.30 271.60 L 177.00 276.70 L 175.70 287.20 L 175.60 297.70 L 176.10 302.90 L 181.80 348.80 L 185.10 371.70 L 189.00 394.60 L 173.10 403.70 L 168.30 407.30 L 165.30 410.10 L 162.70 413.10 L 156.50 422.60 L 139.60 446.00 L 135.60 452.10 L 132.00 458.30 L 128.90 464.80 L 122.90 479.50 L 118.40 494.50 L 116.20 504.60 L 114.50 514.90 L 113.30 525.30 L 112.40 546.20 L 112.50 556.70 L 113.20 572.50 L 114.50 588.30 L 118.90 625.00 L 122.80 648.10 L 123.00 657.60 L 121.60 665.20 L 116.90 676.20 L 112.60 687.50 L 108.80 698.90 L 105.50 710.50 L 102.80 722.30 L 100.50 734.10 L 98.80 746.00 L 97.60 758.00 L 97.00 770.10 L 96.90 782.10 L 97.30 794.10 L 98.30 806.20 L 99.40 811.50 L 100.80 816.60 L 102.70 821.50 L 105.00 826.20 L 107.60 830.70 L 113.90 838.90 L 117.50 842.70 L 122.70 847.30 L 128.30 851.50 L 134.40 855.20 L 140.70 858.40 L 147.10 861.10 L 167.20 866.90 L 180.50 870.10 L 194.00 872.70 L 221.10 876.60 L 234.80 878.00 L 255.40 879.60 L 276.00 880.60 L 296.70 881.10 L 358.50 882.10 L 369.10 887.80 L 384.40 897.50 L 389.60 900.50 L 395.00 903.00 L 409.70 907.90 L 418.80 910.20 L 428.00 912.10 L 437.30 913.60 L 446.70 914.60 L 456.10 915.20 L 465.50 915.40 L 474.90 915.00 L 484.30 914.20 L 493.60 913.00 L 502.80 911.20 L 512.00 908.90 L 517.60 907.20 L 522.90 904.90 L 527.90 902.10 L 532.70 898.90 L 537.10 895.30 L 541.30 891.30 L 545.10 887.00 L 548.50 882.40 L 551.60 877.50 L 588.60 877.10 L 621.50 874.80 L 674.40 873.00 L 693.50 871.30 L 720.40 869.30 L 733.90 868.70 L 747.40 868.60 L 769.10 881.60 L 774.80 884.50 L 780.50 887.00 L 788.60 889.40 L 792.80 890.20 L 804.50 891.20 L 816.40 891.80 L 824.40 891.90 L 840.20 891.10 L 848.00 890.10 L 855.80 888.70 L 863.40 886.70 L 874.40 882.80 L 879.80 880.30 L 890.10 874.50 L 894.80 871.30 L 899.20 867.60 L 903.30 863.60 L 907.10 859.30 L 910.50 854.70 L 913.40 849.80 L 916.10 844.70 L 918.20 839.40 L 920.00 833.90 L 921.30 828.30 L 922.10 822.60 L 923.20 807.10 L 923.60 791.50 L 923.50 781.10 L 922.50 760.40 L 921.30 752.30 L 919.60 744.40 L 917.50 736.50 L 915.10 728.80 L 912.20 721.10 L 908.10 711.80 L 903.50 702.70 L 898.30 693.90 L 892.60 685.40 L 886.40 677.30 L 879.80 669.60 L 872.70 662.30 L 865.20 655.30 L 857.30 648.90 L 849.00 643.00 L 840.40 637.60 L 831.40 632.80 L 835.00 626.40 L 837.90 619.80 L 840.30 613.20 L 842.30 606.40 L 845.20 592.50 L 850.10 560.70 L 852.20 550.30 L 854.00 543.40 L 856.20 536.60 L 858.90 530.00 L 863.70 528.10 L 884.30 522.00 L 889.20 520.10 L 895.30 516.70 L 900.60 512.30 L 902.80 509.60 L 904.80 506.30 L 907.60 494.30 L 908.40 488.20 L 909.00 479.00 L 909.10 469.80 L 908.50 460.50 L 906.80 442.90 L 905.50 411.90 L 903.70 400.80 L 902.20 396.20 L 901.00 394.30 L 898.80 391.60 L 893.30 387.20 L 884.20 381.60 L 884.90 366.20 L 888.60 319.80 L 889.60 304.40 L 889.90 289.00 L 889.70 278.70 L 888.90 268.40 L 887.70 258.10 L 886.30 253.20 L 884.30 248.70 L 881.80 244.50 L 878.80 240.70 L 875.40 237.20 L 871.70 234.10 L 867.60 231.40 L 863.30 229.00 L 858.70 226.90 L 849.10 224.00 L 839.20 222.40 L 834.30 222.10 L 825.10 222.30 L 820.80 223.00 L 803.50 226.80 L 797.80 227.10 L 794.90 226.80 L 789.80 221.40 L 771.00 198.80 L 758.00 185.30 L 749.70 177.40 L 741.10 170.00 L 732.20 162.90 L 723.00 156.20 L 713.50 150.00 L 703.70 144.10 L 693.60 138.70 L 683.40 133.70 L 672.90 129.20 L 662.30 125.10 L 651.50 121.50 L 638.50 117.70 L 625.40 114.40 L 612.10 111.70 L 598.80 109.60 L 585.30 108.00 L 571.90 106.90 L 558.30 106.30 L 544.80 106.20 L 531.20 106.50 L 517.70 107.20 L 504.20 108.40 L 490.80 109.90 Z" fill="#fcfbf8" fill-rule="nonzero" node-id="66" stroke="none" target-height="846.6" target-width="865.2" target-x="79.3" target-y="87.9"></path><path d="M 490.80 109.90 L 504.20 108.40 L 517.70 107.20 L 531.20 106.50 L 544.80 106.20 L 558.30 106.30 L 571.90 106.90 L 585.30 108.00 L 598.80 109.60 L 612.10 111.70 L 625.40 114.40 L 638.50 117.70 L 651.50 121.50 L 662.30 125.10 L 672.90 129.20 L 683.40 133.70 L 693.60 138.70 L 703.70 144.10 L 713.50 150.00 L 723.00 156.20 L 732.20 162.90 L 741.10 170.00 L 749.70 177.40 L 758.00 185.30 L 771.00 198.80 L 789.80 221.40 L 794.90 226.80 L 797.80 227.10 L 803.50 226.80 L 820.80 223.00 L 825.10 222.30 L 834.30 222.10 L 839.20 222.40 L 849.10 224.00 L 858.70 226.90 L 863.30 229.00 L 867.60 231.40 L 871.70 234.10 L 875.40 237.20 L 878.80 240.70 L 881.80 244.50 L 884.30 248.70 L 886.30 253.20 L 887.70 258.10 L 888.90 268.40 L 889.70 278.70 L 889.90 289.00 L 889.60 304.40 L 888.60 319.80 L 884.90 366.20 L 884.20 381.60 L 893.30 387.20 L 898.80 391.60 L 901.00 394.30 L 902.20 396.20 L 903.70 400.80 L 905.50 411.90 L 906.80 442.90 L 908.50 460.50 L 909.10 469.80 L 909.00 479.00 L 908.40 488.20 L 907.50 494.30 L 904.80 506.30 L 902.80 509.60 L 900.60 512.30 L 895.30 516.70 L 889.20 520.10 L 884.30 522.00 L 863.70 528.10 L 858.90 530.00 L 856.20 536.60 L 854.00 543.40 L 852.20 550.30 L 850.10 560.70 L 845.20 592.50 L 842.30 606.40 L 840.30 613.20 L 837.90 619.80 L 835.00 626.40 L 831.40 632.80 L 840.40 637.60 L 849.00 643.00 L 857.30 648.90 L 865.20 655.30 L 872.70 662.30 L 879.80 669.60 L 886.40 677.30 L 892.60 685.40 L 898.30 693.90 L 903.50 702.70 L 908.10 711.80 L 912.20 721.10 L 915.10 728.80 L 917.50 736.50 L 919.60 744.40 L 921.30 752.30 L 922.50 760.40 L 923.20 770.80 L 923.60 791.50 L 923.20 807.10 L 922.10 822.60 L 921.30 828.30 L 920.00 833.90 L 918.20 839.40 L 916.10 844.70 L 913.40 849.80 L 910.40 854.70 L 907.10 859.30 L 903.30 863.60 L 899.20 867.60 L 894.80 871.30 L 890.10 874.50 L 879.80 880.30 L 874.40 882.80 L 863.40 886.70 L 855.80 888.70 L 848.00 890.10 L 840.20 891.10 L 824.40 891.90 L 804.50 891.20 L 792.80 890.20 L 788.60 889.40 L 780.50 887.00 L 774.80 884.50 L 769.10 881.60 L 747.40 868.60 L 733.90 868.70 L 720.40 869.30 L 693.50 871.30 L 674.40 873.00 L 621.50 874.80 L 588.60 877.10 L 551.60 877.50 L 548.50 882.40 L 545.10 887.00 L 541.30 891.30 L 537.10 895.30 L 532.70 898.90 L 527.90 902.10 L 522.90 904.90 L 517.60 907.20 L 512.00 908.90 L 502.80 911.20 L 493.60 913.00 L 484.30 914.20 L 474.90 915.00 L 465.50 915.40 L 456.10 915.20 L 446.70 914.60 L 437.30 913.60 L 428.00 912.10 L 418.80 910.20 L 409.70 907.90 L 395.00 903.00 L 389.60 900.50 L 384.40 897.50 L 369.10 887.80 L 358.50 882.10 L 296.70 881.10 L 276.00 880.60 L 255.40 879.60 L 234.80 878.00 L 221.10 876.60 L 194.00 872.70 L 180.50 870.10 L 167.20 866.90 L 147.10 861.10 L 140.70 858.40 L 134.40 855.20 L 128.30 851.50 L 122.70 847.30 L 117.50 842.70 L 113.90 838.90 L 107.60 830.70 L 105.00 826.20 L 102.70 821.50 L 100.80 816.60 L 99.40 811.50 L 98.30 806.20 L 97.30 794.10 L 96.90 782.10 L 97.00 770.10 L 97.60 758.00 L 98.80 746.00 L 100.50 734.10 L 102.80 722.30 L 105.50 710.50 L 108.80 698.90 L 112.60 687.50 L 116.90 676.20 L 121.60 665.20 L 123.00 657.60 L 122.80 648.10 L 118.90 625.00 L 114.50 588.30 L 113.20 572.50 L 112.50 556.70 L 112.40 546.20 L 113.30 525.30 L 114.50 514.90 L 116.20 504.60 L 118.40 494.50 L 122.90 479.50 L 128.90 464.80 L 132.00 458.30 L 135.60 452.10 L 139.60 446.00 L 156.50 422.60 L 162.70 413.10 L 165.30 410.10 L 168.30 407.30 L 173.10 403.70 L 189.00 394.60 L 185.10 371.70 L 181.80 348.80 L 176.10 302.90 L 175.60 297.70 L 175.70 287.20 L 177.00 276.70 L 178.30 271.60 L 179.90 266.60 L 181.90 261.80 L 184.30 257.20 L 187.20 252.90 L 190.60 248.90 L 198.30 241.80 L 202.30 238.80 L 210.80 233.90 L 216.90 231.30 L 223.20 229.30 L 229.60 227.90 L 236.20 227.00 L 242.80 226.60 L 249.50 226.80 L 256.20 227.40 L 262.70 228.40 L 272.20 230.60 L 275.50 229.80 L 278.90 227.20 L 291.40 213.40 L 299.70 204.70 L 308.40 196.30 L 317.30 188.30 L 326.60 180.50 L 336.20 173.20 L 346.00 166.20 L 356.00 159.60 L 366.30 153.30 L 376.80 147.40 L 387.60 141.80 L 398.50 136.70 L 409.60 131.90 L 420.80 127.60 L 432.20 123.60 L 443.80 120.00 L 455.40 116.90 L 467.10 114.10 L 478.90 111.80 L 490.80 109.90 Z M 440.20 140.10 L 431.50 143.00 L 426.10 145.70 L 423.70 147.60 L 413.80 151.00 L 404.10 154.80 L 394.60 159.00 L 385.20 163.60 L 376.00 168.60 L 364.70 175.30 L 353.80 182.40 L 343.20 190.10 L 332.90 198.20 L 323.00 206.80 L 313.50 215.80 L 304.30 225.10 L 295.60 234.80 L 288.90 242.90 L 282.70 251.30 L 277.00 260.00 L 266.70 278.20 L 262.00 287.60 L 255.50 301.90 L 249.50 316.40 L 278.70 302.40 L 285.80 298.60 L 292.60 294.30 L 311.80 288.50 L 331.10 283.10 L 350.50 278.20 L 370.10 273.80 L 389.70 269.80 L 409.40 266.30 L 429.20 263.20 L 449.00 260.60 L 468.90 258.40 L 488.90 256.60 L 508.90 255.30 L 559.20 252.40 L 589.40 252.10 L 609.60 252.50 L 629.80 253.40 L 650.00 254.80 L 680.20 257.30 L 710.30 260.10 L 743.20 266.10 L 759.60 269.70 L 775.80 273.70 L 791.90 278.10 L 807.90 283.00 L 790.30 255.60 L 781.00 242.20 L 771.20 229.00 L 764.30 220.50 L 757.20 212.20 L 749.80 204.30 L 742.00 196.70 L 734.00 189.50 L 725.50 182.80 L 712.20 173.60 L 697.80 165.70 L 691.70 161.10 L 685.30 157.00 L 678.70 153.30 L 664.80 147.00 L 657.70 144.30 L 646.70 140.80 L 635.60 137.80 L 613.40 132.50 L 599.00 130.20 L 584.60 128.40 L 570.10 127.20 L 555.50 126.40 L 540.90 126.10 L 526.30 126.40 L 511.80 127.30 L 497.30 128.70 L 482.80 130.60 L 468.50 133.20 L 454.30 136.30 L 440.20 140.10 Z M 806.50 243.50 L 822.50 273.40 L 829.90 288.60 L 836.80 304.10 L 840.90 314.60 L 848.20 336.00 L 851.20 346.80 L 853.70 357.80 L 856.20 372.50 L 857.00 375.80 L 858.20 379.00 L 859.80 382.00 L 861.70 384.80 L 864.10 387.40 L 869.40 349.90 L 871.40 331.10 L 872.80 312.20 L 873.40 299.60 L 873.50 287.00 L 873.20 274.30 L 872.80 269.60 L 871.90 265.00 L 870.30 260.50 L 868.30 256.20 L 865.80 252.30 L 862.70 248.70 L 860.20 246.20 L 854.40 242.20 L 851.20 240.60 L 846.30 239.20 L 841.30 238.30 L 836.30 238.00 L 826.20 238.50 L 821.10 239.30 L 813.70 241.10 L 806.50 243.50 Z M 199.70 262.60 L 197.50 265.30 L 195.70 268.20 L 193.20 274.30 L 191.90 280.90 L 191.60 285.90 L 191.80 291.10 L 192.30 296.20 L 196.30 323.90 L 201.40 369.70 L 203.20 381.10 L 205.30 392.40 L 211.80 390.80 L 214.10 378.10 L 216.80 365.40 L 219.90 353.00 L 223.60 340.60 L 232.00 316.20 L 241.80 292.40 L 249.00 276.70 L 256.70 261.30 L 264.70 246.20 L 259.00 244.90 L 253.20 244.00 L 247.20 243.50 L 241.20 243.50 L 235.30 244.00 L 229.50 244.90 L 223.80 246.40 L 218.30 248.50 L 213.10 251.10 L 209.50 253.40 L 206.00 256.10 L 202.80 259.20 L 199.70 262.60 Z M 509.80 268.30 L 483.00 270.40 L 456.10 273.00 L 438.20 275.10 L 402.50 280.30 L 384.80 283.50 L 367.20 287.20 L 349.70 291.40 L 336.70 295.00 L 311.00 303.10 L 298.30 307.70 L 281.80 315.00 L 273.70 319.10 L 260.70 326.70 L 251.10 333.80 L 246.60 337.70 L 242.40 342.00 L 238.50 346.60 L 235.50 353.90 L 232.90 361.30 L 230.70 368.80 L 228.90 376.40 L 227.00 386.60 L 225.70 396.90 L 224.90 407.40 L 224.40 428.30 L 225.30 454.60 L 226.20 470.10 L 228.30 486.50 L 232.60 513.90 L 237.50 535.50 L 240.60 546.10 L 244.30 556.50 L 248.60 566.70 L 253.40 575.60 L 258.60 584.30 L 264.20 592.70 L 270.30 600.80 L 276.80 608.60 L 283.70 616.00 L 290.90 623.10 L 298.50 629.80 L 306.40 636.20 L 314.50 642.10 L 323.00 647.60 L 331.80 652.70 L 343.50 658.40 L 355.30 663.70 L 367.30 668.40 L 379.50 672.70 L 391.90 676.50 L 404.40 679.90 L 416.90 683.00 L 429.60 685.60 L 446.70 688.60 L 463.80 691.00 L 481.10 692.90 L 498.30 694.30 L 532.80 695.90 L 584.60 692.70 L 601.80 691.00 L 613.20 689.50 L 624.60 687.50 L 658.80 680.60 L 681.50 674.70 L 692.70 671.10 L 703.80 667.20 L 714.70 662.90 L 725.40 658.20 L 736.00 653.10 L 746.30 647.60 L 756.40 641.70 L 766.20 635.40 L 775.80 628.60 L 785.00 621.40 L 793.80 613.70 L 802.40 605.60 L 807.70 599.90 L 812.70 594.00 L 817.20 587.90 L 821.30 581.50 L 825.20 574.90 L 831.80 561.30 L 834.60 554.20 L 837.90 544.60 L 840.70 534.70 L 843.10 524.70 L 846.50 504.40 L 847.60 494.20 L 848.70 478.90 L 849.20 463.80 L 849.30 448.70 L 848.60 418.10 L 847.50 402.90 L 846.30 392.80 L 844.70 382.80 L 842.70 372.90 L 840.20 363.10 L 837.10 353.40 L 833.30 343.90 L 831.80 337.30 L 828.60 325.70 L 825.00 316.90 L 822.70 312.80 L 820.00 309.10 L 817.00 305.70 L 814.50 303.50 L 811.60 301.60 L 808.50 300.00 L 792.50 293.90 L 780.00 289.70 L 767.30 286.00 L 754.50 282.80 L 741.60 280.00 L 728.60 277.60 L 708.90 274.60 L 689.20 272.20 L 649.70 268.50 L 621.70 267.50 L 593.70 267.00 L 565.80 266.90 L 537.80 267.40 L 509.80 268.30 Z M 861.20 400.40 L 860.90 418.00 L 860.70 470.90 L 860.10 488.40 L 859.00 506.00 L 872.50 506.40 L 888.10 500.30 L 889.20 467.80 L 889.20 451.50 L 888.80 427.20 L 887.80 402.80 L 865.00 402.30 L 861.20 400.40 Z M 181.10 418.80 L 179.10 422.20 L 177.60 425.80 L 176.60 429.40 L 175.60 436.80 L 176.00 446.50 L 181.60 498.30 L 183.40 509.70 L 184.80 517.30 L 186.70 524.80 L 189.00 532.20 L 195.60 523.40 L 196.90 526.30 L 198.40 528.70 L 200.20 530.70 L 204.60 533.70 L 211.00 536.00 L 215.20 536.80 L 223.80 537.50 L 224.30 531.10 L 224.30 524.70 L 223.90 518.30 L 223.00 512.00 L 221.40 505.90 L 219.20 499.80 L 214.80 457.40 L 211.00 415.00 L 201.00 415.80 L 181.10 418.80 Z M 129.80 550.40 L 130.00 559.20 L 131.40 576.80 L 133.20 589.80 L 135.40 602.90 L 140.30 628.80 L 144.40 623.00 L 148.80 617.60 L 153.50 612.40 L 158.40 607.60 L 163.70 603.00 L 169.20 598.80 L 175.00 595.00 L 181.00 591.50 L 187.20 588.40 L 193.70 585.60 L 193.40 568.00 L 193.60 550.60 L 181.80 546.50 L 175.40 543.60 L 171.30 540.30 L 169.70 538.20 L 168.50 535.80 L 167.80 532.90 L 166.00 521.70 L 164.50 510.50 L 159.60 465.40 L 157.90 454.20 L 155.70 443.00 L 150.30 454.20 L 145.40 465.60 L 141.10 477.20 L 135.90 495.10 L 132.20 513.30 L 131.00 522.60 L 130.10 531.80 L 129.80 541.10 L 129.80 550.40 Z M 215.90 549.10 L 210.50 557.50 L 209.10 560.50 L 208.30 564.70 L 209.00 576.90 L 210.80 593.60 L 213.40 606.70 L 215.20 613.10 L 217.40 619.40 L 219.90 625.50 L 222.90 631.30 L 226.40 637.00 L 230.40 642.40 L 233.50 645.90 L 236.80 649.00 L 244.10 654.20 L 252.20 658.40 L 258.60 660.90 L 265.10 663.10 L 244.40 615.60 L 242.90 605.10 L 239.80 587.50 L 236.30 573.80 L 234.00 567.00 L 231.20 560.50 L 228.00 554.10 L 215.90 549.10 Z M 181.30 611.30 L 175.10 616.00 L 168.60 623.10 L 158.70 637.60 L 153.20 647.20 L 148.00 657.10 L 143.10 667.10 L 138.60 677.30 L 134.50 687.70 L 130.80 698.30 L 127.50 708.90 L 124.70 719.70 L 122.30 730.60 L 120.30 741.60 L 118.90 752.60 L 117.90 763.70 L 117.40 774.90 L 117.40 786.00 L 118.00 797.10 L 119.10 808.30 L 120.20 812.00 L 121.60 815.60 L 123.50 818.80 L 128.00 824.90 L 134.90 831.60 L 139.30 835.30 L 147.30 839.20 L 155.40 842.70 L 163.70 845.90 L 172.20 848.60 L 180.80 850.80 L 201.40 855.30 L 213.30 857.50 L 225.30 859.20 L 249.50 861.30 L 279.80 862.20 L 334.50 862.20 L 312.90 839.60 L 307.40 831.00 L 297.10 813.40 L 292.60 804.20 L 287.40 791.70 L 285.30 785.20 L 284.20 766.70 L 284.20 757.40 L 284.80 748.20 L 285.70 742.30 L 288.40 731.00 L 291.10 722.60 L 300.40 697.90 L 306.00 681.30 L 296.60 681.10 L 287.20 681.30 L 268.50 682.80 L 259.10 680.10 L 249.80 676.90 L 243.70 674.30 L 237.80 671.40 L 232.20 668.10 L 228.20 665.30 L 224.40 662.20 L 220.90 658.80 L 217.60 655.00 L 212.20 646.60 L 207.10 635.40 L 204.60 628.40 L 195.60 600.10 L 181.30 611.30 Z M 695.10 683.70 L 680.50 688.00 L 665.90 691.90 L 651.20 695.30 L 636.40 698.40 L 621.50 701.00 L 606.50 703.20 L 591.40 705.00 L 576.40 706.30 L 561.30 707.30 L 546.10 707.80 L 527.20 707.90 L 508.30 707.40 L 489.40 706.20 L 470.60 704.40 L 451.80 701.90 L 433.10 698.90 L 414.60 695.20 L 396.20 690.80 L 383.40 687.40 L 370.80 683.30 L 358.40 678.70 L 346.30 673.50 L 334.30 668.00 L 310.90 655.70 L 288.20 642.20 L 294.70 650.10 L 301.60 657.50 L 308.90 664.50 L 316.60 671.00 L 324.50 677.00 L 332.80 682.70 L 341.30 687.90 L 350.20 692.80 L 359.20 697.30 L 368.40 701.30 L 377.80 705.10 L 387.40 708.40 L 400.40 712.40 L 413.50 715.70 L 426.80 718.50 L 440.10 720.70 L 453.40 722.40 L 466.70 723.60 L 505.00 725.40 L 524.20 725.70 L 543.40 725.60 L 562.60 725.10 L 581.80 724.00 L 601.00 722.30 L 620.00 720.10 L 639.00 717.20 L 653.10 714.50 L 667.10 711.50 L 681.10 708.00 L 695.00 704.00 L 704.40 701.00 L 723.00 693.70 L 732.10 689.50 L 741.10 684.90 L 749.80 679.90 L 758.20 674.60 L 766.40 668.90 L 774.30 662.80 L 781.80 656.20 L 788.90 649.30 L 795.70 642.00 L 800.70 635.90 L 805.40 629.50 L 809.90 622.90 L 813.90 616.00 L 817.70 608.70 L 809.20 617.50 L 800.30 625.70 L 791.10 633.50 L 781.50 640.90 L 771.50 647.70 L 761.30 654.20 L 750.80 660.20 L 740.10 665.80 L 729.10 670.90 L 717.90 675.60 L 706.60 679.80 L 695.10 683.70 Z M 784.20 677.60 L 804.50 692.00 L 814.40 699.70 L 823.90 707.70 L 833.00 716.20 L 841.70 725.10 L 847.80 732.10 L 853.70 739.40 L 859.20 746.90 L 867.10 759.30 L 873.60 767.60 L 878.90 773.40 L 901.60 795.50 L 906.80 801.50 L 905.80 782.40 L 905.00 772.80 L 903.70 763.40 L 901.10 750.90 L 896.80 736.80 L 893.90 729.10 L 890.60 721.50 L 886.90 714.10 L 882.80 706.90 L 878.30 700.00 L 873.50 693.20 L 868.30 686.70 L 862.80 680.50 L 857.00 674.60 L 851.00 668.90 L 844.60 663.60 L 838.00 658.50 L 831.20 653.80 L 824.10 649.50 L 816.90 645.50 L 810.30 649.40 L 803.20 655.70 L 784.20 677.60 Z M 300.30 764.30 L 301.80 772.00 L 303.70 779.50 L 306.00 786.90 L 308.80 794.10 L 311.90 801.20 L 319.30 814.80 L 323.50 821.30 L 332.90 833.70 L 343.40 845.20 L 351.00 852.30 L 359.00 859.00 L 367.30 865.20 L 376.00 871.00 L 384.90 876.20 L 394.00 880.80 L 394.60 858.80 L 397.30 852.00 L 400.40 845.40 L 404.10 839.20 L 408.30 833.20 L 412.80 827.60 L 417.80 822.30 L 423.10 817.30 L 428.70 812.70 L 434.60 808.30 L 446.20 803.10 L 469.90 793.50 L 459.30 783.20 L 415.10 744.30 L 404.40 734.10 L 410.80 732.20 L 396.90 726.40 L 382.80 721.10 L 354.10 711.70 L 348.20 707.50 L 342.10 703.50 L 317.10 688.70 L 309.90 706.90 L 306.70 716.20 L 302.40 731.90 L 300.30 744.70 L 299.90 751.20 L 299.80 757.70 L 300.30 764.30 Z M 734.00 710.30 L 723.50 727.90 L 713.50 745.70 L 704.00 763.80 L 694.80 782.10 L 700.60 788.20 L 706.80 794.00 L 713.20 799.40 L 719.90 804.50 L 729.10 810.90 L 738.70 816.70 L 748.50 822.20 L 754.60 804.80 L 763.80 793.50 L 768.80 788.30 L 774.10 783.40 L 781.50 777.20 L 789.20 771.30 L 797.20 765.90 L 799.70 768.10 L 809.60 762.00 L 820.50 761.80 L 831.40 761.90 L 842.30 762.50 L 853.10 763.60 L 829.30 736.20 L 816.90 722.80 L 797.60 704.20 L 792.40 699.90 L 787.00 696.00 L 784.20 694.00 L 781.50 692.50 L 778.80 691.50 L 776.20 691.00 L 772.50 690.80 L 768.80 691.20 L 765.10 692.10 L 761.50 693.50 L 754.20 697.20 L 734.00 710.30 Z M 424.60 732.00 L 451.40 757.10 L 465.10 769.40 L 479.10 781.30 L 484.00 785.20 L 494.80 791.70 L 511.60 800.30 L 517.00 803.40 L 522.20 806.80 L 528.60 812.20 L 535.60 819.30 L 539.10 823.50 L 542.10 828.00 L 544.70 832.80 L 547.00 837.80 L 548.90 842.90 L 551.70 853.60 L 552.70 859.00 L 573.90 852.00 L 584.30 847.90 L 594.60 843.50 L 604.70 838.60 L 614.60 833.30 L 624.20 827.50 L 633.50 821.30 L 642.40 814.60 L 648.80 809.20 L 660.90 797.60 L 666.60 791.30 L 671.50 785.60 L 680.40 773.70 L 686.40 764.30 L 692.10 754.70 L 713.70 715.40 L 699.60 719.80 L 685.50 723.70 L 671.30 727.20 L 657.10 730.30 L 642.80 732.90 L 624.80 735.60 L 606.70 737.70 L 588.50 739.20 L 570.30 740.20 L 552.00 740.60 L 533.70 740.60 L 515.50 740.20 L 497.20 739.20 L 472.90 737.40 L 448.60 735.00 L 424.60 732.00 Z M 762.40 851.30 L 763.60 854.60 L 765.10 857.60 L 767.00 860.10 L 771.70 864.30 L 774.40 866.00 L 778.70 868.20 L 783.50 869.90 L 788.30 871.30 L 802.70 874.40 L 800.20 864.00 L 794.20 843.70 L 805.30 845.90 L 809.20 860.70 L 810.70 875.00 L 845.20 874.10 L 840.10 850.70 L 830.40 830.70 L 833.40 831.10 L 838.30 832.70 L 840.20 833.90 L 842.60 836.00 L 844.60 838.40 L 846.30 841.20 L 848.30 845.80 L 849.90 850.90 L 853.50 866.60 L 854.80 871.10 L 867.70 865.50 L 880.20 859.20 L 880.10 853.50 L 879.50 847.80 L 876.20 825.20 L 875.80 819.50 L 876.00 813.80 L 879.20 817.10 L 881.80 820.70 L 883.90 824.50 L 885.70 828.50 L 888.20 837.10 L 890.60 850.40 L 897.60 848.70 L 898.40 833.00 L 898.40 827.80 L 898.00 822.60 L 897.10 817.60 L 896.10 814.40 L 894.70 811.20 L 892.90 808.20 L 889.40 803.40 L 885.50 798.90 L 881.40 794.70 L 876.90 790.70 L 872.20 787.10 L 867.30 783.90 L 862.10 781.10 L 856.70 778.70 L 851.10 776.80 L 845.40 775.50 L 839.60 774.70 L 828.50 774.30 L 823.50 774.50 L 818.60 775.10 L 809.00 777.50 L 799.90 781.40 L 795.50 783.90 L 790.00 787.60 L 784.90 791.80 L 780.10 796.40 L 775.70 801.50 L 771.90 806.90 L 768.60 812.70 L 766.50 817.20 L 763.30 826.50 L 762.30 831.40 L 761.60 836.30 L 761.50 841.20 L 761.70 846.20 L 762.40 851.30 Z M 606.60 858.10 L 629.60 857.60 L 652.60 856.80 L 675.60 855.50 L 698.60 853.70 L 744.30 849.10 L 741.20 840.70 L 739.90 838.10 L 737.30 835.20 L 709.30 816.90 L 700.90 810.80 L 692.70 804.30 L 684.90 797.30 L 677.60 805.70 L 669.90 813.80 L 661.90 821.50 L 653.60 828.80 L 644.90 835.60 L 635.80 842.00 L 628.80 846.50 L 614.20 854.50 L 606.60 858.10 Z M 413.20 850.80 L 411.00 854.50 L 409.40 858.40 L 408.30 862.30 L 407.70 866.40 L 407.50 870.60 L 407.80 874.70 L 409.20 883.00 L 410.30 887.10 L 426.00 892.30 L 442.00 896.30 L 450.20 897.70 L 458.40 898.80 L 450.40 872.70 L 448.20 863.90 L 458.40 872.60 L 463.20 877.40 L 470.50 899.00 L 481.40 897.20 L 492.30 895.00 L 503.00 892.30 L 502.40 883.70 L 501.30 875.20 L 500.10 869.60 L 498.50 864.10 L 496.40 858.70 L 499.00 846.70 L 502.20 850.90 L 504.90 855.20 L 507.20 859.70 L 509.10 864.40 L 512.00 874.30 L 515.10 889.40 L 525.10 882.90 L 528.30 880.50 L 530.20 878.70 L 533.30 874.70 L 534.40 872.50 L 535.10 870.00 L 535.90 863.10 L 535.90 855.30 L 535.30 851.40 L 534.10 846.40 L 532.30 841.60 L 530.10 836.90 L 527.30 832.50 L 524.20 828.30 L 520.70 824.40 L 516.80 820.70 L 512.70 817.50 L 508.30 814.50 L 503.70 812.00 L 499.00 809.80 L 494.10 808.10 L 484.30 806.90 L 479.40 806.90 L 474.70 807.30 L 468.30 808.40 L 462.10 810.00 L 456.10 812.30 L 450.20 815.00 L 444.60 818.20 L 439.20 821.90 L 434.00 826.00 L 429.20 830.40 L 424.60 835.10 L 420.40 840.20 L 416.60 845.40 L 413.20 850.80 Z" fill="#261a2c" fill-rule="nonzero" node-id="68" stroke="none" target-height="809.2" target-width="826.69995" target-x="96.9" target-y="106.2"></path><path d="M 440.20 140.10 L 454.30 136.30 L 468.50 133.20 L 482.80 130.60 L 497.30 128.70 L 511.80 127.30 L 526.30 126.40 L 540.90 126.10 L 555.50 126.40 L 570.10 127.20 L 584.60 128.40 L 599.00 130.20 L 613.40 132.50 L 635.60 137.80 L 646.70 140.80 L 657.70 144.30 L 671.80 150.00 L 678.70 153.30 L 685.30 157.00 L 691.70 161.10 L 697.80 165.70 L 701.80 175.70 L 705.40 185.90 L 708.30 196.20 L 710.10 204.10 L 711.50 212.00 L 712.50 220.00 L 713.10 228.00 L 713.20 236.00 L 712.70 244.00 L 711.80 252.00 L 710.30 260.10 L 650.00 254.80 L 629.80 253.40 L 609.60 252.50 L 589.40 252.10 L 559.20 252.40 L 488.90 256.60 L 468.90 258.40 L 449.00 260.60 L 429.20 263.20 L 409.40 266.30 L 389.70 269.80 L 370.10 273.80 L 350.50 278.20 L 331.10 283.10 L 311.80 288.50 L 292.60 294.30 L 305.50 271.00 L 312.50 259.60 L 319.90 248.40 L 327.60 237.50 L 335.80 226.90 L 344.30 216.70 L 353.30 206.90 L 362.80 197.50 L 370.20 190.80 L 377.90 184.40 L 385.80 178.30 L 402.10 167.00 L 409.60 160.90 L 416.80 154.40 L 423.70 147.60 L 426.10 145.70 L 431.50 143.00 L 440.20 140.10 Z" fill="#ecb0b8" fill-rule="nonzero" node-id="70" stroke="none" target-height="168.19998" target-width="420.6" target-x="292.6" target-y="126.1"></path><path d="M 295.60 234.80 L 304.30 225.10 L 313.50 215.80 L 323.00 206.80 L 332.90 198.20 L 343.20 190.10 L 353.80 182.40 L 364.70 175.30 L 376.00 168.60 L 385.20 163.60 L 394.60 159.00 L 404.10 154.80 L 413.80 151.00 L 423.70 147.60 L 416.80 154.40 L 409.60 160.90 L 402.10 167.00 L 385.80 178.30 L 377.90 184.40 L 370.20 190.80 L 362.80 197.50 L 353.30 206.90 L 344.30 216.70 L 335.80 226.90 L 327.60 237.50 L 319.90 248.40 L 312.50 259.60 L 305.50 271.00 L 292.60 294.30 L 285.80 298.60 L 278.70 302.40 L 249.50 316.40 L 255.50 301.90 L 262.00 287.60 L 271.60 269.00 L 277.00 260.00 L 282.70 251.30 L 288.90 242.90 L 295.60 234.80 Z" fill="#fae6db" fill-rule="nonzero" node-id="72" stroke="none" target-height="168.79999" target-width="174.20001" target-x="249.5" target-y="147.6"></path><path d="M 697.80 165.70 L 712.20 173.60 L 725.50 182.80 L 734.00 189.50 L 742.00 196.70 L 749.80 204.30 L 764.30 220.50 L 771.20 229.00 L 781.00 242.20 L 790.30 255.60 L 807.90 283.00 L 791.90 278.10 L 775.80 273.70 L 759.60 269.70 L 726.80 262.90 L 710.30 260.10 L 711.80 252.00 L 712.70 244.00 L 713.20 236.00 L 713.10 228.00 L 712.50 220.00 L 711.50 212.00 L 710.10 204.10 L 708.30 196.20 L 705.40 185.90 L 701.80 175.70 L 697.80 165.70 Z" fill="#c8849d" fill-rule="nonzero" node-id="74" stroke="none" target-height="117.3" target-width="110.10004" target-x="697.8" target-y="165.7"></path><path d="M 806.50 243.50 L 813.70 241.10 L 821.10 239.30 L 826.20 238.50 L 836.30 238.00 L 841.30 238.30 L 846.30 239.20 L 851.20 240.60 L 857.40 244.10 L 862.70 248.70 L 865.80 252.30 L 868.30 256.20 L 870.30 260.50 L 871.90 265.00 L 872.80 269.60 L 873.50 287.00 L 873.40 299.60 L 872.80 312.20 L 871.40 331.10 L 869.40 349.90 L 864.10 387.40 L 861.70 384.80 L 859.80 382.00 L 858.20 379.00 L 857.00 375.80 L 856.20 372.50 L 853.70 357.80 L 851.20 346.80 L 848.20 336.00 L 840.90 314.60 L 836.80 304.10 L 829.90 288.60 L 822.50 273.40 L 806.50 243.50 Z" fill="#c8839b" fill-rule="nonzero" node-id="76" stroke="none" target-height="149.4" target-width="67" target-x="806.5" target-y="238"></path><path d="M 199.70 262.60 L 202.80 259.20 L 206.00 256.10 L 209.50 253.40 L 213.10 251.10 L 218.30 248.50 L 223.80 246.40 L 229.50 244.90 L 235.30 244.00 L 241.20 243.50 L 247.20 243.50 L 253.20 244.00 L 259.00 244.90 L 264.70 246.20 L 256.70 261.30 L 249.00 276.70 L 241.80 292.40 L 232.00 316.20 L 223.60 340.60 L 219.90 353.00 L 216.80 365.40 L 214.10 378.10 L 211.80 390.80 L 205.30 392.40 L 203.20 381.10 L 201.40 369.70 L 196.30 323.90 L 192.30 296.20 L 191.80 291.10 L 191.60 285.90 L 191.90 280.90 L 193.20 274.30 L 195.70 268.20 L 197.50 265.30 L 199.70 262.60 Z" fill="#f8dad7" fill-rule="nonzero" node-id="78" stroke="none" target-height="148.9" target-width="73.100006" target-x="191.6" target-y="243.5"></path><path d="M 509.80 268.30 L 537.80 267.40 L 565.80 266.90 L 593.70 267.00 L 621.70 267.50 L 649.70 268.50 L 689.20 272.20 L 708.90 274.60 L 728.60 277.60 L 741.60 280.00 L 754.50 282.80 L 767.30 286.00 L 780.00 289.70 L 792.50 293.90 L 808.50 300.00 L 811.60 301.60 L 814.50 303.50 L 817.00 305.70 L 820.00 309.10 L 822.70 312.80 L 825.00 316.90 L 828.60 325.70 L 830.00 330.30 L 833.30 343.90 L 833.00 361.10 L 825.90 348.00 L 820.10 335.70 L 817.90 331.70 L 815.40 327.90 L 812.50 324.50 L 810.30 322.50 L 805.10 319.30 L 797.00 315.70 L 788.70 312.50 L 780.30 309.70 L 767.40 306.20 L 754.40 303.20 L 728.20 298.30 L 710.00 295.70 L 691.90 293.50 L 673.70 291.70 L 655.50 290.30 L 631.10 289.10 L 606.80 288.50 L 582.40 288.50 L 558.00 289.00 L 533.60 290.10 L 509.30 291.50 L 485.00 293.40 L 436.50 298.30 L 385.30 305.90 L 359.80 310.90 L 347.20 313.90 L 334.90 317.50 L 322.70 321.60 L 313.70 325.00 L 304.80 329.00 L 296.20 333.30 L 287.60 338.10 L 282.40 341.40 L 277.50 345.10 L 273.00 349.20 L 268.80 353.60 L 264.90 358.30 L 261.50 363.20 L 258.30 368.40 L 255.60 373.90 L 253.20 379.60 L 251.20 385.30 L 249.50 391.20 L 248.30 397.20 L 246.80 407.30 L 244.90 427.60 L 244.50 448.00 L 245.70 468.40 L 246.90 478.60 L 248.50 488.70 L 250.50 498.60 L 252.90 508.50 L 255.70 518.30 L 259.00 528.00 L 262.70 537.50 L 266.80 546.80 L 275.90 564.50 L 280.80 572.80 L 286.10 580.80 L 291.80 588.60 L 297.90 596.20 L 304.30 603.40 L 311.00 610.20 L 318.10 616.80 L 325.50 622.90 L 333.20 628.60 L 341.30 633.90 L 349.60 638.80 L 369.00 648.40 L 388.90 656.60 L 402.40 661.20 L 416.10 665.40 L 430.00 669.00 L 458.20 675.00 L 472.30 677.40 L 493.70 680.50 L 515.00 683.10 L 523.00 684.80 L 531.00 686.10 L 539.00 686.90 L 551.10 687.50 L 563.20 687.40 L 611.70 684.90 L 623.80 684.70 L 635.90 685.10 L 624.60 687.50 L 613.20 689.50 L 601.80 691.00 L 584.60 692.70 L 532.80 695.90 L 498.30 694.30 L 481.10 692.90 L 463.80 691.00 L 446.70 688.60 L 429.60 685.60 L 416.90 683.00 L 404.40 679.90 L 391.90 676.50 L 379.50 672.70 L 367.30 668.40 L 355.30 663.70 L 343.50 658.40 L 331.80 652.70 L 323.00 647.60 L 314.50 642.10 L 306.40 636.20 L 298.50 629.80 L 290.90 623.10 L 283.70 616.00 L 276.80 608.60 L 270.30 600.80 L 264.20 592.70 L 258.60 584.30 L 253.40 575.60 L 248.60 566.70 L 244.30 556.50 L 240.60 546.10 L 237.50 535.50 L 232.60 513.90 L 228.30 486.50 L 226.20 470.10 L 224.70 438.80 L 224.40 428.30 L 224.90 407.40 L 225.70 396.90 L 227.00 386.60 L 228.90 376.40 L 230.70 368.80 L 232.90 361.30 L 235.50 353.90 L 238.50 346.60 L 242.40 342.00 L 246.60 337.70 L 255.80 330.10 L 265.80 323.50 L 273.70 319.10 L 290.10 311.30 L 298.30 307.70 L 311.00 303.10 L 323.80 298.90 L 349.70 291.40 L 367.20 287.20 L 384.80 283.50 L 402.50 280.30 L 420.30 277.50 L 456.10 273.00 L 483.00 270.40 L 509.80 268.30 Z" fill="#adc4c5" fill-rule="nonzero" node-id="80" stroke="none" target-height="429.00003" target-width="608.9" target-x="224.4" target-y="266.9"></path><path d="M 315.80 340.90 L 339.60 331.80 L 355.90 326.70 L 364.20 324.70 L 372.50 323.20 L 380.90 322.40 L 389.30 322.10 L 390.00 353.40 L 389.90 369.00 L 389.30 384.70 L 388.20 400.30 L 386.50 415.90 L 384.80 427.50 L 382.70 439.00 L 380.10 450.50 L 377.10 461.90 L 375.90 465.50 L 374.10 468.70 L 372.00 471.80 L 364.40 480.20 L 358.30 475.20 L 352.70 469.90 L 347.50 464.20 L 342.80 458.30 L 338.50 452.00 L 334.50 445.50 L 331.00 438.70 L 327.90 431.80 L 325.10 424.60 L 320.70 409.90 L 318.90 402.30 L 317.20 392.10 L 315.90 381.80 L 315.20 371.50 L 314.90 361.10 L 315.20 350.90 L 315.80 340.90 Z" fill="#fdfcfb" fill-rule="nonzero" node-id="82" stroke="none" target-height="158.1" target-width="75.100006" target-x="314.9" target-y="322.1"></path><path d="M 833.30 343.90 L 837.10 353.40 L 840.20 363.10 L 842.70 372.90 L 844.70 382.80 L 846.30 392.80 L 847.50 402.90 L 848.60 418.10 L 849.30 448.70 L 849.20 463.80 L 848.70 478.90 L 847.60 494.20 L 845.00 514.60 L 843.10 524.70 L 840.70 534.70 L 837.90 544.60 L 834.60 554.20 L 828.60 568.20 L 821.30 581.50 L 817.20 587.90 L 812.70 594.00 L 807.70 599.90 L 802.40 605.60 L 793.80 613.70 L 785.00 621.40 L 775.80 628.60 L 766.20 635.40 L 756.40 641.70 L 746.30 647.60 L 736.00 653.10 L 725.40 658.20 L 714.70 662.90 L 703.80 667.20 L 692.70 671.10 L 681.50 674.70 L 658.80 680.60 L 635.90 685.10 L 623.80 684.70 L 611.70 684.90 L 575.30 686.90 L 563.20 687.40 L 551.10 687.50 L 539.00 686.90 L 531.00 686.10 L 523.00 684.80 L 515.00 683.10 L 548.80 682.70 L 565.70 682.10 L 582.60 681.00 L 599.40 679.50 L 616.10 677.40 L 628.60 675.50 L 641.00 673.10 L 653.40 670.40 L 677.00 663.90 L 699.50 656.40 L 710.60 652.20 L 721.60 647.50 L 732.30 642.40 L 742.70 636.80 L 752.80 630.70 L 762.60 624.10 L 769.70 618.80 L 776.50 613.20 L 783.10 607.20 L 789.40 600.80 L 794.70 595.00 L 799.70 589.00 L 804.30 582.80 L 808.60 576.40 L 813.80 567.50 L 818.40 558.30 L 822.60 548.80 L 826.20 539.10 L 829.30 529.20 L 831.90 519.10 L 834.10 509.00 L 835.90 498.80 L 838.60 476.80 L 839.30 465.00 L 839.40 453.20 L 838.40 429.70 L 837.20 418.00 L 834.90 400.40 L 832.20 382.90 L 825.90 348.00 L 833.00 361.10 L 833.30 343.90 Z" fill="#a2a4a9" fill-rule="nonzero" node-id="84" stroke="none" target-height="343.6" target-width="334.3" target-x="515" target-y="343.9"></path><path d="M 861.20 400.40 L 874.40 407.00 L 874.20 419.40 L 874.60 469.20 L 874.30 481.60 L 873.70 494.00 L 872.50 506.40 L 859.00 506.00 L 860.10 488.40 L 860.70 470.90 L 860.90 418.00 L 861.20 400.40 Z" fill="#bf7796" fill-rule="nonzero" node-id="86" stroke="none" target-height="106" target-width="15.599976" target-x="859" target-y="400.4"></path><path d="M 865.00 402.30 L 887.80 402.80 L 888.80 427.20 L 889.20 451.50 L 888.80 484.00 L 888.10 500.30 L 872.50 506.40 L 873.70 494.00 L 874.30 481.60 L 874.60 469.20 L 874.20 419.40 L 874.40 407.00 L 865.00 402.30 Z" fill="#724560" fill-rule="nonzero" node-id="88" stroke="none" target-height="104.100006" target-width="24.200012" target-x="865" target-y="402.3"></path><path d="M 181.10 418.80 L 201.00 415.80 L 211.00 415.00 L 214.80 457.40 L 219.20 499.80 L 221.30 530.10 L 205.60 533.80 L 201.70 518.50 L 200.30 510.80 L 194.30 463.80 L 191.40 448.40 L 189.60 440.80 L 187.30 433.30 L 184.50 426.00 L 181.10 418.80 Z" fill="#efabb6" fill-rule="nonzero" node-id="90" stroke="none" target-height="118.79999" target-width="40.199997" target-x="181.1" target-y="415"></path><path d="M 177.70 463.70 L 176.00 446.50 L 175.60 436.80 L 176.60 429.40 L 177.60 425.80 L 179.10 422.20 L 181.10 418.80 L 184.50 426.00 L 187.30 433.30 L 189.60 440.80 L 191.40 448.40 L 194.30 463.80 L 200.30 510.80 L 201.70 518.50 L 205.60 533.80 L 221.30 530.10 L 219.20 499.80 L 221.40 505.90 L 223.00 512.00 L 223.90 518.30 L 224.30 524.70 L 224.30 531.10 L 223.80 537.50 L 215.20 536.80 L 211.00 536.00 L 204.60 533.70 L 200.20 530.70 L 198.40 528.70 L 196.90 526.30 L 195.60 523.40 L 189.00 532.20 L 186.70 524.80 L 184.80 517.30 L 183.40 509.70 L 181.60 498.30 L 177.70 463.70 Z" fill="#86556e" fill-rule="nonzero" node-id="92" stroke="none" target-height="118.70001" target-width="48.699997" target-x="175.6" target-y="418.8"></path><path d="M 257.80 422.00 L 265.00 447.10 L 267.70 455.30 L 270.80 463.40 L 274.40 471.30 L 277.10 476.40 L 280.10 481.30 L 286.60 490.60 L 297.80 509.60 L 303.10 516.90 L 308.20 521.90 L 311.00 524.00 L 314.20 525.90 L 317.70 527.40 L 289.90 548.10 L 285.50 541.00 L 281.40 533.80 L 274.40 518.90 L 270.50 508.70 L 267.10 498.20 L 264.40 487.60 L 262.10 476.80 L 260.30 465.90 L 259.10 455.00 L 258.20 443.90 L 257.80 433.00 L 257.80 422.00 Z" fill="#553356" fill-rule="nonzero" node-id="94" stroke="none" target-height="126.099976" target-width="59.900024" target-x="257.8" target-y="422"></path><path d="M 129.80 550.40 L 129.80 541.10 L 130.10 531.80 L 131.00 522.60 L 132.20 513.30 L 135.90 495.10 L 141.10 477.20 L 145.40 465.60 L 150.30 454.20 L 155.70 443.00 L 157.90 454.20 L 159.60 465.40 L 164.50 510.50 L 166.00 521.70 L 167.80 532.90 L 168.50 535.80 L 169.70 538.20 L 171.30 540.30 L 175.40 543.60 L 181.80 546.50 L 193.60 550.60 L 193.40 568.00 L 193.70 585.60 L 187.20 588.40 L 181.00 591.50 L 175.00 595.00 L 169.20 598.80 L 163.70 603.00 L 158.40 607.60 L 153.50 612.40 L 148.80 617.60 L 144.40 623.00 L 140.30 628.80 L 135.40 602.90 L 133.20 589.80 L 131.40 576.80 L 130.00 559.20 L 129.80 550.40 Z" fill="#f8e4d3" fill-rule="nonzero" node-id="96" stroke="none" target-height="185.79999" target-width="63.899994" target-x="129.8" target-y="443"></path><path d="M 338.20 515.60 L 345.00 512.90 L 351.90 510.70 L 358.90 509.10 L 366.00 507.90 L 373.20 507.20 L 380.40 507.00 L 387.60 507.20 L 394.80 507.80 L 402.00 508.90 L 416.20 512.10 L 423.10 514.30 L 436.60 519.80 L 449.20 526.60 L 455.50 530.60 L 457.50 532.00 L 459.10 533.80 L 460.30 536.00 L 463.00 547.10 L 464.20 552.90 L 465.30 562.60 L 464.60 570.00 L 463.60 573.60 L 462.10 577.00 L 459.90 580.30 L 455.00 584.40 L 449.80 588.10 L 444.40 591.30 L 438.60 593.90 L 432.70 596.20 L 426.60 598.00 L 420.40 599.30 L 414.00 600.20 L 407.70 600.70 L 401.20 600.90 L 388.70 600.00 L 377.60 592.30 L 374.10 589.40 L 370.10 585.10 L 367.20 580.10 L 366.30 577.30 L 365.90 574.20 L 363.70 546.20 L 360.80 518.30 L 338.20 515.60 Z" fill="#dc93a2" fill-rule="nonzero" node-id="98" stroke="none" target-height="93.900024" target-width="127.099976" target-x="338.2" target-y="507"></path><path d="M 317.70 527.40 L 327.60 520.90 L 332.80 518.10 L 338.20 515.60 L 360.80 518.30 L 363.70 546.20 L 365.90 574.20 L 366.30 577.30 L 367.20 580.10 L 370.10 585.10 L 374.10 589.40 L 377.60 592.30 L 388.70 600.00 L 374.40 598.90 L 369.70 599.00 L 363.50 599.90 L 360.40 600.80 L 353.90 605.20 L 342.40 616.10 L 334.60 610.30 L 327.20 604.20 L 320.00 597.60 L 313.30 590.70 L 306.90 583.40 L 301.10 575.70 L 293.20 563.50 L 286.60 550.60 L 317.70 527.40 Z" fill="#f1b6b9" fill-rule="nonzero" node-id="100" stroke="none" target-height="100.5" target-width="102.100006" target-x="286.6" target-y="515.6"></path><path d="M 713.80 528.80 L 731.40 523.60 L 740.50 521.60 L 749.60 520.30 L 755.70 519.80 L 767.90 519.90 L 773.30 520.60 L 778.50 521.80 L 783.60 523.30 L 791.10 526.20 L 812.90 536.50 L 810.30 543.80 L 807.20 551.00 L 803.80 557.90 L 800.10 564.60 L 795.90 571.20 L 791.50 577.40 L 786.70 583.50 L 781.60 589.20 L 776.10 594.70 L 770.40 599.90 L 764.40 604.70 L 758.00 609.30 L 760.80 598.50 L 761.10 595.80 L 760.90 593.20 L 759.70 590.00 L 758.50 588.40 L 754.70 585.50 L 750.70 582.90 L 733.70 574.10 L 727.20 568.50 L 724.20 565.40 L 721.60 562.10 L 720.30 559.60 L 719.40 557.00 L 719.00 554.10 L 721.20 548.10 L 725.30 541.30 L 733.90 529.70 L 713.80 528.80 Z" fill="#de93a3" fill-rule="nonzero" node-id="102" stroke="none" target-height="89.5" target-width="99.10004" target-x="713.8" target-y="519.8"></path><path d="M 460.30 536.00 L 469.10 537.00 L 477.80 537.60 L 486.50 537.60 L 495.20 537.20 L 512.50 535.50 L 564.40 527.90 L 581.70 526.50 L 602.80 526.30 L 615.20 526.80 L 652.20 530.20 L 664.50 531.20 L 676.80 531.70 L 689.10 531.70 L 697.30 531.20 L 705.50 530.20 L 713.80 528.80 L 733.90 529.70 L 725.30 541.30 L 722.70 545.30 L 720.00 551.00 L 719.00 554.10 L 719.40 557.00 L 720.30 559.60 L 721.60 562.10 L 724.20 565.40 L 727.20 568.50 L 733.70 574.10 L 730.80 581.30 L 727.50 588.30 L 723.60 594.90 L 714.70 607.30 L 709.70 613.30 L 701.90 621.80 L 677.20 646.30 L 666.00 650.10 L 654.60 653.50 L 643.10 656.40 L 631.50 658.90 L 615.90 661.60 L 600.20 663.80 L 584.40 665.30 L 568.50 666.40 L 552.70 667.00 L 536.90 667.30 L 520.00 666.40 L 503.20 665.00 L 486.30 663.10 L 469.50 660.70 L 452.80 657.60 L 436.30 654.00 L 424.00 650.70 L 411.80 647.10 L 399.80 643.10 L 387.90 638.60 L 376.30 633.70 L 364.80 628.30 L 353.50 622.40 L 342.40 616.10 L 353.90 605.20 L 360.40 600.80 L 363.50 599.90 L 369.70 599.00 L 374.40 598.90 L 394.90 600.60 L 401.20 600.90 L 414.00 600.20 L 420.40 599.30 L 426.60 598.00 L 432.70 596.20 L 438.60 593.90 L 444.40 591.30 L 449.80 588.10 L 455.00 584.40 L 459.90 580.30 L 462.10 577.00 L 463.60 573.60 L 464.60 570.00 L 465.30 562.60 L 465.10 558.70 L 464.20 552.90 L 460.30 536.00 Z M 561.80 540.90 L 562.60 545.60 L 563.90 550.00 L 565.60 553.90 L 570.20 561.20 L 577.60 569.50 L 592.00 583.40 L 592.70 599.00 L 592.00 604.00 L 591.30 606.30 L 590.10 608.50 L 588.50 610.40 L 586.40 612.10 L 581.50 614.30 L 574.90 615.30 L 570.80 615.30 L 562.70 614.60 L 559.60 613.80 L 556.90 612.70 L 554.30 611.20 L 550.80 608.50 L 547.60 605.30 L 536.00 591.30 L 530.20 595.70 L 532.20 600.20 L 534.60 604.50 L 537.50 608.50 L 540.80 612.30 L 544.40 615.60 L 548.40 618.50 L 552.60 621.00 L 557.20 622.90 L 562.00 624.30 L 565.40 625.10 L 568.80 625.40 L 572.10 625.20 L 577.10 624.30 L 595.20 618.70 L 601.80 617.80 L 605.10 617.90 L 608.40 618.60 L 615.80 621.10 L 619.70 621.80 L 623.50 622.10 L 627.20 621.80 L 630.90 621.20 L 634.50 620.10 L 637.90 618.70 L 641.30 616.90 L 645.40 614.00 L 649.10 610.70 L 652.40 606.80 L 654.60 603.60 L 657.90 596.80 L 659.90 589.40 L 660.20 585.60 L 660.10 581.80 L 659.60 577.80 L 655.80 579.80 L 652.60 583.50 L 651.20 586.20 L 646.70 597.90 L 645.20 600.60 L 643.30 603.00 L 638.70 606.90 L 633.40 609.50 L 629.60 610.60 L 625.70 611.20 L 621.70 611.30 L 617.70 611.00 L 610.00 609.30 L 607.20 606.90 L 604.90 604.20 L 603.20 601.20 L 601.90 598.00 L 601.10 594.60 L 600.70 591.10 L 600.80 587.50 L 601.40 584.00 L 602.30 580.50 L 603.70 577.20 L 605.50 574.10 L 610.40 567.50 L 612.80 563.60 L 614.70 559.40 L 616.20 555.10 L 617.70 549.20 L 618.50 543.10 L 618.60 536.80 L 599.50 535.20 L 586.60 535.30 L 580.30 535.90 L 574.00 537.00 L 567.80 538.60 L 561.80 540.90 Z" fill="#f5dbc6" fill-rule="nonzero" node-id="104" stroke="none" target-height="141" target-width="391.50003" target-x="342.4" target-y="526.3"></path><path d="M 561.80 540.90 L 567.80 538.60 L 574.00 537.00 L 580.30 535.90 L 586.60 535.30 L 599.50 535.20 L 618.60 536.80 L 618.50 543.10 L 617.70 549.20 L 616.20 555.10 L 614.70 559.40 L 612.80 563.60 L 610.40 567.50 L 605.50 574.10 L 603.70 577.20 L 602.30 580.50 L 601.40 584.00 L 600.80 587.50 L 600.70 591.10 L 601.10 594.60 L 601.90 598.00 L 603.20 601.20 L 604.90 604.20 L 607.20 606.90 L 610.00 609.30 L 617.70 611.00 L 621.70 611.30 L 625.70 611.20 L 629.60 610.60 L 633.40 609.50 L 638.70 606.90 L 643.30 603.00 L 645.20 600.60 L 646.70 597.90 L 651.20 586.20 L 652.60 583.50 L 654.40 581.20 L 655.80 579.80 L 659.60 577.80 L 660.10 581.80 L 660.20 585.60 L 659.90 589.40 L 659.10 593.20 L 656.40 600.30 L 652.40 606.80 L 649.10 610.70 L 645.40 614.00 L 641.30 616.90 L 637.90 618.70 L 630.90 621.20 L 627.20 621.80 L 623.50 622.10 L 619.70 621.80 L 615.80 621.10 L 608.40 618.60 L 605.10 617.90 L 601.80 617.80 L 598.50 618.10 L 591.90 619.60 L 577.10 624.30 L 572.10 625.20 L 568.80 625.40 L 565.40 625.10 L 557.20 622.90 L 552.60 621.00 L 548.40 618.50 L 544.40 615.60 L 540.80 612.30 L 537.50 608.50 L 534.60 604.50 L 532.20 600.20 L 530.20 595.70 L 536.00 591.30 L 547.60 605.30 L 550.80 608.50 L 554.30 611.20 L 556.90 612.70 L 559.60 613.80 L 562.70 614.60 L 570.80 615.30 L 574.90 615.30 L 578.90 614.90 L 584.00 613.40 L 586.40 612.10 L 588.50 610.40 L 590.10 608.50 L 592.00 604.00 L 592.70 599.00 L 592.00 583.40 L 577.60 569.50 L 570.30 561.20 L 565.60 553.90 L 563.90 550.00 L 562.60 545.60 L 561.80 540.90 Z M 576.00 550.20 L 579.30 556.50 L 581.60 559.40 L 584.10 561.90 L 588.00 564.50 L 592.40 565.80 L 594.80 565.90 L 597.40 565.50 L 600.90 563.50 L 603.70 559.80 L 604.90 557.10 L 608.40 545.90 L 591.30 544.60 L 585.70 545.00 L 580.60 546.70 L 578.20 548.20 L 576.00 550.20 Z" fill="#2d1835" fill-rule="nonzero" node-id="106" stroke="none" target-height="90.20001" target-width="130" target-x="530.2" target-y="535.2"></path><path d="M 576.00 550.20 L 578.20 548.20 L 580.60 546.70 L 585.70 545.00 L 591.30 544.60 L 608.40 545.90 L 604.90 557.10 L 603.70 559.80 L 602.20 562.10 L 599.30 564.60 L 597.40 565.50 L 594.80 565.90 L 592.40 565.80 L 590.20 565.30 L 586.00 563.40 L 584.10 561.90 L 581.60 559.40 L 579.30 556.50 L 576.00 550.20 Z" fill="#b05677" fill-rule="nonzero" node-id="108" stroke="none" target-height="21.300049" target-width="32.400024" target-x="576" target-y="544.6"></path><path d="M 215.90 549.10 L 228.00 554.10 L 231.20 560.50 L 234.00 567.00 L 236.30 573.70 L 239.80 587.50 L 241.20 594.50 L 244.40 615.60 L 238.90 603.30 L 231.10 606.20 L 224.40 577.40 L 220.50 563.10 L 215.90 549.10 Z" fill="#979398" fill-rule="nonzero" node-id="110" stroke="none" target-height="66.5" target-width="28.5" target-x="215.9" target-y="549.1"></path><path d="M 208.50 567.10 L 208.30 564.70 L 209.10 560.50 L 210.50 557.50 L 215.90 549.10 L 220.50 563.10 L 224.40 577.40 L 231.10 606.20 L 238.90 603.30 L 265.10 663.10 L 258.60 660.90 L 252.20 658.40 L 248.10 656.40 L 240.30 651.70 L 236.80 649.00 L 233.50 645.90 L 230.40 642.40 L 226.40 637.00 L 222.90 631.30 L 219.90 625.50 L 217.40 619.40 L 215.20 613.10 L 213.40 606.70 L 210.80 593.60 L 210.00 586.90 L 208.50 567.10 Z" fill="#b8b7bb" fill-rule="nonzero" node-id="112" stroke="none" target-height="114" target-width="56.800003" target-x="208.3" target-y="549.1"></path><path d="M 733.70 574.10 L 750.70 582.90 L 754.70 585.50 L 758.50 588.40 L 759.70 590.00 L 760.90 593.20 L 761.10 595.80 L 760.80 598.50 L 758.00 609.30 L 749.90 614.90 L 741.50 620.20 L 732.80 625.20 L 724.00 629.80 L 715.00 634.00 L 705.80 637.80 L 696.40 641.10 L 686.90 643.90 L 677.20 646.30 L 701.90 621.80 L 709.70 613.30 L 714.70 607.30 L 723.60 594.90 L 727.50 588.30 L 730.80 581.30 L 733.70 574.10 Z" fill="#debbae" fill-rule="nonzero" node-id="114" stroke="none" target-height="72.20001" target-width="83.89996" target-x="677.2" target-y="574.1"></path><path d="M 181.30 611.30 L 195.60 600.10 L 204.60 628.40 L 207.10 635.40 L 210.00 642.20 L 214.70 650.90 L 217.60 655.00 L 220.90 658.80 L 224.40 662.20 L 228.20 665.30 L 232.20 668.10 L 237.80 671.40 L 243.70 674.30 L 249.80 676.90 L 259.10 680.10 L 282.90 687.10 L 281.00 703.40 L 279.60 719.90 L 279.10 730.90 L 279.10 741.80 L 279.60 752.80 L 280.40 761.00 L 281.60 769.10 L 283.20 777.20 L 285.30 785.20 L 287.40 791.70 L 292.60 804.20 L 297.10 813.40 L 302.10 822.30 L 312.90 839.60 L 303.00 843.00 L 293.00 845.70 L 282.90 847.90 L 272.60 849.60 L 262.40 850.90 L 252.00 851.80 L 236.40 852.60 L 220.70 852.80 L 189.50 852.50 L 180.80 850.80 L 172.20 848.60 L 163.70 845.90 L 155.40 842.70 L 147.30 839.20 L 139.30 835.30 L 138.80 823.00 L 133.70 789.60 L 132.80 780.50 L 132.60 774.40 L 132.80 768.30 L 133.60 762.10 L 135.60 748.40 L 138.00 734.70 L 141.00 720.90 L 144.40 707.30 L 148.40 693.90 L 153.00 680.60 L 156.80 670.80 L 161.00 661.20 L 165.60 651.80 L 170.50 642.60 L 175.90 633.60 L 181.70 625.00 L 187.90 616.50 L 194.60 608.40 L 181.30 611.30 Z" fill="#f2dcc6" fill-rule="nonzero" node-id="116" stroke="none" target-height="252.70001" target-width="180.29999" target-x="132.6" target-y="600.1"></path><path d="M 181.30 611.30 L 194.60 608.40 L 187.90 616.50 L 181.70 625.00 L 175.90 633.60 L 170.50 642.60 L 165.60 651.80 L 161.00 661.20 L 156.80 670.80 L 153.00 680.60 L 148.40 693.90 L 144.40 707.30 L 141.00 720.90 L 138.00 734.70 L 135.60 748.40 L 133.60 762.10 L 132.80 768.30 L 132.60 774.40 L 132.80 780.50 L 133.70 789.60 L 138.80 823.00 L 139.30 835.30 L 130.60 827.70 L 125.60 822.00 L 121.60 815.60 L 120.20 812.00 L 119.10 808.30 L 118.00 797.10 L 117.40 786.00 L 117.40 774.90 L 117.90 763.70 L 118.90 752.60 L 120.30 741.60 L 122.30 730.60 L 124.70 719.70 L 127.50 708.90 L 130.80 698.30 L 134.50 687.70 L 138.60 677.30 L 143.10 667.10 L 148.00 657.10 L 153.20 647.20 L 158.70 637.60 L 165.20 627.90 L 168.60 623.10 L 172.40 618.70 L 178.10 613.50 L 181.30 611.30 Z" fill="#fcf6e2" fill-rule="nonzero" node-id="118" stroke="none" target-height="226.89996" target-width="77.200005" target-x="117.4" target-y="608.4"></path><path d="M 695.10 683.70 L 706.60 679.80 L 717.90 675.60 L 729.10 670.90 L 740.10 665.80 L 750.80 660.20 L 761.30 654.20 L 771.50 647.70 L 781.50 640.90 L 791.10 633.50 L 800.30 625.70 L 809.20 617.50 L 817.70 608.70 L 813.90 616.00 L 809.90 622.90 L 805.40 629.50 L 800.70 635.90 L 795.70 642.00 L 788.90 649.30 L 781.80 656.20 L 774.30 662.80 L 766.40 668.90 L 758.20 674.60 L 749.80 679.90 L 741.10 684.90 L 732.10 689.50 L 723.00 693.70 L 704.40 701.00 L 695.00 704.00 L 681.10 708.00 L 667.10 711.50 L 653.10 714.50 L 639.00 717.20 L 620.00 720.10 L 601.00 722.30 L 581.80 724.00 L 562.60 725.10 L 543.40 725.60 L 524.20 725.70 L 505.00 725.40 L 466.70 723.60 L 453.40 722.40 L 440.10 720.70 L 426.80 718.50 L 413.50 715.70 L 400.40 712.40 L 387.40 708.40 L 377.80 705.10 L 368.40 701.30 L 359.20 697.30 L 350.20 692.80 L 341.30 687.90 L 332.80 682.70 L 324.50 677.00 L 316.60 671.00 L 308.90 664.50 L 301.60 657.50 L 294.70 650.10 L 288.20 642.20 L 310.90 655.70 L 334.30 668.00 L 346.30 673.50 L 358.40 678.70 L 370.80 683.30 L 383.40 687.40 L 396.20 690.80 L 414.60 695.20 L 433.10 698.90 L 451.80 701.90 L 470.60 704.40 L 489.40 706.20 L 508.30 707.40 L 527.20 707.90 L 546.10 707.80 L 561.30 707.30 L 576.40 706.30 L 591.40 705.00 L 606.50 703.20 L 621.50 701.00 L 636.40 698.40 L 651.20 695.30 L 665.90 691.90 L 680.50 688.00 L 695.10 683.70 Z" fill="#a4aeb2" fill-rule="nonzero" node-id="120" stroke="none" target-height="117" target-width="529.5" target-x="288.2" target-y="608.7"></path><path d="M 784.20 677.60 L 803.20 655.70 L 810.30 649.40 L 816.90 645.50 L 824.10 649.50 L 831.20 653.80 L 838.00 658.50 L 844.60 663.60 L 851.00 668.90 L 857.00 674.60 L 862.80 680.50 L 868.30 686.70 L 873.50 693.20 L 878.30 699.90 L 882.80 706.90 L 886.90 714.10 L 890.60 721.50 L 893.90 729.10 L 896.80 736.80 L 901.10 750.90 L 902.50 757.10 L 905.00 772.80 L 905.80 782.40 L 906.80 801.50 L 901.60 795.50 L 878.90 773.40 L 873.60 767.60 L 867.10 759.30 L 859.20 746.90 L 853.70 739.40 L 847.80 732.10 L 841.70 725.10 L 833.00 716.20 L 823.90 707.70 L 814.40 699.70 L 804.50 692.00 L 784.20 677.60 Z" fill="#d3a1a2" fill-rule="nonzero" node-id="122" stroke="none" target-height="156" target-width="122.599976" target-x="784.2" target-y="645.5"></path><path d="M 268.50 682.80 L 287.20 681.30 L 296.60 681.10 L 306.00 681.30 L 300.40 697.90 L 291.10 722.60 L 288.40 731.00 L 285.70 742.30 L 284.80 748.20 L 284.20 757.40 L 284.20 766.70 L 285.30 785.20 L 283.20 777.20 L 281.60 769.10 L 280.40 761.00 L 279.60 752.80 L 279.10 741.80 L 279.10 730.90 L 279.60 719.90 L 281.00 703.40 L 282.90 687.10 L 268.50 682.80 Z" fill="#c39da1" fill-rule="nonzero" node-id="124" stroke="none" target-height="104.10004" target-width="37.5" target-x="268.5" target-y="681.1"></path><path d="M 300.30 764.30 L 299.80 757.70 L 299.90 751.20 L 300.30 744.70 L 302.40 731.90 L 306.70 716.20 L 309.90 706.90 L 317.10 688.70 L 342.10 703.50 L 348.20 707.50 L 354.10 711.70 L 365.60 725.00 L 376.70 738.60 L 369.00 749.90 L 381.40 753.50 L 387.50 755.60 L 393.40 758.20 L 397.10 760.30 L 400.60 762.80 L 403.80 765.80 L 409.70 772.30 L 415.20 779.10 L 425.20 793.50 L 434.60 808.30 L 428.70 812.70 L 423.10 817.30 L 417.80 822.30 L 412.80 827.60 L 408.30 833.20 L 404.10 839.20 L 400.40 845.40 L 397.30 852.00 L 394.60 858.80 L 384.30 853.90 L 374.80 847.90 L 370.50 844.30 L 366.40 840.40 L 348.50 822.50 L 330.90 804.40 L 322.40 795.00 L 314.40 785.20 L 309.40 778.50 L 300.30 764.30 Z" fill="#f4ddc9" fill-rule="nonzero" node-id="126" stroke="none" target-height="170.09998" target-width="134.80002" target-x="299.8" target-y="688.7"></path><path d="M 734.00 710.30 L 754.20 697.20 L 761.50 693.50 L 765.10 692.10 L 768.80 691.20 L 772.50 690.80 L 776.20 691.00 L 778.80 691.50 L 781.50 692.50 L 784.20 694.00 L 792.40 699.90 L 802.50 708.80 L 816.90 722.80 L 784.20 722.30 L 734.00 710.30 Z" fill="#88859e" fill-rule="nonzero" node-id="128" stroke="none" target-height="32" target-width="82.900024" target-x="734" target-y="690.8"></path><path d="M 354.10 711.70 L 382.80 721.10 L 396.90 726.40 L 410.80 732.20 L 404.40 734.10 L 397.50 735.50 L 376.70 738.60 L 365.60 725.00 L 354.10 711.70 Z" fill="#dda9a3" fill-rule="nonzero" node-id="130" stroke="none" target-height="26.899963" target-width="56.69998" target-x="354.1" target-y="711.7"></path><path d="M 734.00 710.30 L 784.20 722.30 L 761.70 728.80 L 741.90 734.80 L 736.90 736.70 L 732.40 738.90 L 729.60 740.70 L 727.10 742.80 L 724.90 745.20 L 723.20 747.90 L 721.80 751.00 L 720.90 754.70 L 720.30 759.30 L 720.40 763.60 L 721.10 767.70 L 722.20 771.80 L 723.80 775.60 L 725.80 779.30 L 730.90 786.10 L 733.90 789.30 L 738.70 793.80 L 743.90 797.90 L 754.60 804.80 L 748.50 822.20 L 738.70 816.70 L 729.10 810.90 L 719.90 804.50 L 713.20 799.40 L 706.80 794.00 L 700.60 788.20 L 694.80 782.10 L 704.00 763.80 L 713.50 745.70 L 723.50 727.90 L 734.00 710.30 Z" fill="#dcb9ae" fill-rule="nonzero" node-id="132" stroke="none" target-height="111.900024" target-width="89.400024" target-x="694.8" target-y="710.3"></path><path d="M 424.60 732.00 L 448.60 735.00 L 472.90 737.40 L 497.20 739.20 L 515.50 740.20 L 533.70 740.60 L 552.00 740.60 L 570.30 740.20 L 588.50 739.20 L 606.70 737.70 L 624.80 735.60 L 642.80 732.90 L 657.10 730.30 L 671.30 727.20 L 685.50 723.70 L 699.60 719.80 L 713.70 715.40 L 692.10 754.70 L 686.40 764.30 L 680.40 773.70 L 671.50 785.60 L 666.60 791.30 L 660.90 797.60 L 648.80 809.20 L 642.40 814.60 L 633.50 821.30 L 624.20 827.50 L 614.60 833.30 L 604.70 838.60 L 594.60 843.50 L 584.30 847.90 L 573.90 852.00 L 552.70 859.00 L 551.70 853.60 L 548.90 842.90 L 547.00 837.80 L 544.70 832.80 L 542.10 828.00 L 539.10 823.50 L 535.60 819.30 L 528.60 812.20 L 522.20 806.80 L 517.00 803.40 L 511.60 800.30 L 494.80 791.70 L 484.00 785.20 L 479.10 781.30 L 465.10 769.40 L 451.40 757.10 L 424.60 732.00 Z" fill="#d1a4a2" fill-rule="nonzero" node-id="134" stroke="none" target-height="143.59998" target-width="289.1" target-x="424.6" target-y="715.4"></path><path d="M 791.00 722.50 L 816.90 722.80 L 829.30 736.20 L 853.10 763.60 L 842.30 762.50 L 831.40 761.90 L 820.50 761.80 L 809.60 762.00 L 803.00 749.00 L 796.80 735.80 L 791.00 722.50 Z" fill="#94a3b6" fill-rule="nonzero" node-id="136" stroke="none" target-height="41.099976" target-width="62.099976" target-x="791" target-y="722.5"></path><path d="M 761.70 728.80 L 784.20 722.30 L 791.00 722.50 L 796.80 735.80 L 803.00 749.00 L 809.60 762.00 L 799.70 768.10 L 787.90 757.10 L 778.90 747.90 L 761.70 728.80 Z" fill="#d6cdc9" fill-rule="nonzero" node-id="138" stroke="none" target-height="45.799988" target-width="47.899963" target-x="761.7" target-y="722.3"></path><path d="M 720.90 754.70 L 721.80 751.00 L 723.20 747.90 L 724.90 745.20 L 727.10 742.80 L 729.60 740.70 L 732.40 738.90 L 736.90 736.70 L 741.90 734.80 L 761.70 728.80 L 778.90 747.90 L 787.90 757.10 L 797.20 765.90 L 789.20 771.30 L 781.50 777.20 L 774.10 783.40 L 768.80 788.30 L 763.80 793.50 L 754.60 804.80 L 743.90 797.90 L 738.70 793.80 L 733.90 789.30 L 730.90 786.10 L 725.80 779.30 L 723.80 775.60 L 722.20 771.80 L 721.10 767.70 L 720.40 763.60 L 720.30 759.30 L 720.90 754.70 Z" fill="#f5e4d2" fill-rule="nonzero" node-id="140" stroke="none" target-height="76" target-width="76.900024" target-x="720.3" target-y="728.8"></path><path d="M 376.70 738.60 L 390.60 736.60 L 404.40 734.10 L 415.10 744.30 L 459.30 783.20 L 469.90 793.50 L 458.00 798.10 L 434.60 808.30 L 425.20 793.50 L 415.20 779.10 L 409.70 772.30 L 403.80 765.80 L 400.60 762.80 L 397.10 760.30 L 393.40 758.20 L 387.50 755.60 L 381.40 753.50 L 369.00 749.90 L 376.70 738.60 Z" fill="#9ea0a3" fill-rule="nonzero" node-id="142" stroke="none" target-height="74.20001" target-width="100.899994" target-x="369" target-y="734.1"></path><path d="M 300.30 764.30 L 309.40 778.50 L 314.40 785.20 L 322.40 795.00 L 330.90 804.40 L 348.50 822.50 L 366.40 840.40 L 370.50 844.30 L 374.80 847.90 L 384.30 853.90 L 394.60 858.80 L 394.00 880.80 L 384.90 876.20 L 376.00 871.00 L 367.30 865.20 L 359.00 859.00 L 351.00 852.30 L 343.40 845.20 L 338.00 839.50 L 328.10 827.60 L 319.30 814.80 L 315.40 808.10 L 311.90 801.20 L 308.80 794.10 L 306.00 786.90 L 303.70 779.50 L 301.80 772.00 L 300.30 764.30 Z" fill="#d2a9a5" fill-rule="nonzero" node-id="144" stroke="none" target-height="116.5" target-width="94.30002" target-x="300.3" target-y="764.3"></path><path d="M 762.40 851.30 L 761.70 846.20 L 761.50 841.20 L 761.60 836.30 L 762.30 831.40 L 763.30 826.50 L 766.50 817.20 L 768.60 812.70 L 771.90 806.90 L 775.70 801.50 L 780.10 796.40 L 784.90 791.80 L 790.00 787.60 L 795.50 783.90 L 799.90 781.40 L 809.00 777.50 L 813.80 776.10 L 818.60 775.10 L 823.50 774.50 L 828.50 774.30 L 839.60 774.70 L 845.40 775.50 L 851.10 776.80 L 856.70 778.70 L 862.10 781.10 L 867.30 783.90 L 872.20 787.10 L 876.90 790.70 L 881.40 794.70 L 885.50 798.90 L 889.40 803.40 L 892.90 808.20 L 894.70 811.20 L 896.10 814.40 L 897.10 817.60 L 898.00 822.60 L 898.40 827.80 L 897.60 848.70 L 890.60 850.40 L 888.20 837.10 L 885.70 828.50 L 883.90 824.50 L 881.80 820.70 L 879.20 817.10 L 876.00 813.80 L 875.80 819.50 L 876.20 825.20 L 879.50 847.80 L 880.10 853.50 L 880.20 859.20 L 867.70 865.50 L 854.80 871.10 L 853.50 866.60 L 849.90 850.90 L 848.30 845.80 L 846.30 841.20 L 844.60 838.40 L 842.60 836.00 L 840.20 833.90 L 836.00 831.80 L 833.40 831.10 L 830.40 830.70 L 840.10 850.70 L 837.00 864.50 L 809.20 860.70 L 805.30 845.90 L 794.20 843.70 L 800.20 864.00 L 802.70 874.40 L 788.30 871.30 L 783.50 869.90 L 778.70 868.20 L 774.40 866.00 L 771.70 864.30 L 767.00 860.10 L 765.10 857.60 L 763.60 854.60 L 762.40 851.30 Z" fill="#f1d8c6" fill-rule="nonzero" node-id="146" stroke="none" target-height="100.10004" target-width="136.90002" target-x="761.5" target-y="774.3"></path><path d="M 606.60 858.10 L 614.20 854.50 L 628.80 846.50 L 635.80 842.00 L 644.90 835.60 L 653.60 828.80 L 661.90 821.50 L 669.90 813.80 L 677.60 805.70 L 684.90 797.30 L 692.70 804.30 L 700.90 810.80 L 709.30 816.90 L 737.30 835.20 L 739.90 838.10 L 741.20 840.70 L 744.30 849.10 L 698.60 853.70 L 675.60 855.50 L 652.60 856.80 L 629.60 857.60 L 606.60 858.10 Z" fill="#cba1a5" fill-rule="nonzero" node-id="148" stroke="none" target-height="60.799988" target-width="137.70001" target-x="606.6" target-y="797.3"></path><path d="M 413.20 850.80 L 416.60 845.40 L 420.40 840.20 L 424.60 835.10 L 429.20 830.40 L 434.00 826.00 L 439.20 821.90 L 444.60 818.20 L 450.20 815.00 L 456.10 812.30 L 462.10 810.00 L 468.30 808.40 L 474.70 807.30 L 484.30 806.90 L 494.10 808.10 L 499.00 809.80 L 503.70 812.00 L 508.30 814.50 L 512.70 817.50 L 516.80 820.70 L 520.70 824.40 L 524.20 828.30 L 527.30 832.50 L 530.10 836.90 L 532.30 841.60 L 534.10 846.40 L 535.30 851.40 L 535.90 855.30 L 535.90 863.10 L 535.10 870.00 L 534.40 872.50 L 533.30 874.70 L 530.20 878.70 L 528.30 880.50 L 525.10 882.90 L 515.10 889.40 L 512.00 874.30 L 509.10 864.40 L 507.20 859.70 L 504.90 855.20 L 502.20 850.90 L 499.00 846.70 L 493.20 874.70 L 463.20 877.40 L 458.40 872.60 L 448.20 863.90 L 450.40 872.70 L 458.40 898.80 L 450.20 897.70 L 442.00 896.30 L 426.00 892.30 L 410.30 887.10 L 409.20 883.00 L 407.80 874.70 L 407.50 870.60 L 407.70 866.40 L 408.30 862.30 L 409.40 858.40 L 411.00 854.50 L 413.20 850.80 Z" fill="#f2d9c7" fill-rule="nonzero" node-id="150" stroke="none" target-height="91.89996" target-width="128.40002" target-x="407.5" target-y="806.9"></path><path d="M 312.90 839.60 L 334.50 862.20 L 279.80 862.20 L 249.50 861.30 L 225.30 859.20 L 213.30 857.50 L 201.40 855.30 L 189.50 852.50 L 220.70 852.80 L 236.40 852.60 L 252.00 851.80 L 262.40 850.90 L 272.60 849.60 L 282.90 847.90 L 293.00 845.70 L 303.00 843.00 L 312.90 839.60 Z" fill="#c59b9b" fill-rule="nonzero" node-id="152" stroke="none" target-height="22.600037" target-width="145" target-x="189.5" target-y="839.6"></path><path d="M 840.10 850.70 L 845.20 874.10 L 810.70 875.00 L 809.20 860.70 L 837.00 864.50 L 840.10 850.70 Z" fill="#c49996" fill-rule="nonzero" node-id="154" stroke="none" target-height="24.299988" target-width="36" target-x="809.2" target-y="850.7"></path><path d="M 496.40 858.70 L 498.50 864.10 L 500.10 869.60 L 501.30 875.20 L 502.40 883.70 L 503.00 892.30 L 492.30 895.00 L 481.40 897.20 L 470.50 899.00 L 463.20 877.40 L 493.20 874.70 L 496.40 858.70 Z" fill="#e2b4aa" fill-rule="nonzero" node-id="156" stroke="none" target-height="40.299988" target-width="39.799988" target-x="463.2" target-y="858.7"></path></svg>